G04 DipTrace 2.4.0.2*
%INSquishyDuinoRev2.gbl*%
%MOIN*%
%ADD13C,0.013*%
%ADD14C,0.0061*%
%ADD16R,0.0669X0.0669*%
%ADD17C,0.0669*%
%ADD23C,0.04*%
%FSLAX44Y44*%
G04*
G70*
G90*
G75*
G01*
%LNBottom*%
%LPD*%
X11537Y5375D2*
D13*
X9786D1*
X6911D1*
X7536Y8688D2*
Y8125D1*
X7724Y7938D1*
X9161D1*
X9286Y8062D1*
Y8500D1*
D23*
X11537Y5375D3*
X9786D3*
X6911D3*
D3*
D3*
X7536Y8688D3*
X4348Y5250D3*
Y4812D3*
Y4375D3*
X5723D3*
Y4812D3*
Y5250D3*
X4125Y8956D2*
D14*
X7408D1*
X7664D2*
X11871D1*
X4125Y8896D2*
X4373D1*
X4699D2*
X5114D1*
X5458D2*
X7322D1*
X7751D2*
X7851D1*
X8722D2*
X9114D1*
X9459D2*
X10114D1*
X10459D2*
X11113D1*
X11459D2*
X11871D1*
X4125Y8835D2*
X4267D1*
X4804D2*
X5012D1*
X5560D2*
X7275D1*
X7797D2*
X7851D1*
X8722D2*
X9013D1*
X9560D2*
X10013D1*
X10560D2*
X11013D1*
X11560D2*
X11871D1*
X4125Y8775D2*
X4205D1*
X4866D2*
X4951D1*
X5621D2*
X7249D1*
X7824D2*
X7851D1*
X8722D2*
X8950D1*
X9621D2*
X9951D1*
X10621D2*
X10951D1*
X11622D2*
X11871D1*
X4125Y8715D2*
X4163D1*
X5663D2*
X7237D1*
X8722D2*
X8909D1*
X9663D2*
X9909D1*
X10663D2*
X10909D1*
X11663D2*
X11871D1*
X5692Y8655D2*
X7237D1*
X8722D2*
X8880D1*
X9692D2*
X9880D1*
X10692D2*
X10880D1*
X11692D2*
X11871D1*
X5710Y8595D2*
X7250D1*
X7822D2*
X7850D1*
X8722D2*
X8861D1*
X9710D2*
X9861D1*
X10711D2*
X10861D1*
X11711D2*
X11871D1*
X5720Y8535D2*
X7278D1*
X7794D2*
X7851D1*
X8722D2*
X8853D1*
X9720D2*
X9853D1*
X10720D2*
X10852D1*
X11720D2*
X11871D1*
X5720Y8475D2*
X7327D1*
X7746D2*
X7851D1*
X8722D2*
X8852D1*
X9721D2*
X9852D1*
X10721D2*
X10852D1*
X11721D2*
X11871D1*
X5712Y8415D2*
X7371D1*
X7702D2*
X7851D1*
X8722D2*
X8859D1*
X9713D2*
X9859D1*
X10713D2*
X10859D1*
X11713D2*
X11871D1*
X5696Y8355D2*
X7371D1*
X7702D2*
X7851D1*
X8722D2*
X8877D1*
X9696D2*
X9877D1*
X10696D2*
X10876D1*
X11696D2*
X11871D1*
X4125Y8295D2*
X4157D1*
X5668D2*
X7371D1*
X7702D2*
X7851D1*
X8722D2*
X8903D1*
X9669D2*
X9903D1*
X10669D2*
X10903D1*
X11669D2*
X11871D1*
X4125Y8234D2*
X4197D1*
X4875D2*
X4943D1*
X5629D2*
X7371D1*
X7702D2*
X7851D1*
X8722D2*
X8943D1*
X9630D2*
X9943D1*
X10630D2*
X10943D1*
X11630D2*
X11871D1*
X4125Y8174D2*
X4256D1*
X4816D2*
X5001D1*
X5571D2*
X7371D1*
X7718D2*
X7851D1*
X8722D2*
X9000D1*
X9571D2*
X10000D1*
X10572D2*
X11000D1*
X11572D2*
X11871D1*
X4125Y8114D2*
X4350D1*
X4721D2*
X5092D1*
X5480D2*
X7371D1*
X7779D2*
X7851D1*
X8722D2*
X9092D1*
X9480D2*
X10092D1*
X10480D2*
X11092D1*
X11480D2*
X11871D1*
X4125Y8054D2*
X7387D1*
X9451D2*
X11871D1*
X4125Y7994D2*
X7435D1*
X9436D2*
X11871D1*
X4125Y7934D2*
X7496D1*
X9389D2*
X11871D1*
X4125Y7874D2*
X4326D1*
X4745D2*
X4851D1*
X5721D2*
X7556D1*
X9329D2*
X11871D1*
X4125Y7814D2*
X4242D1*
X4830D2*
X4851D1*
X5721D2*
X7618D1*
X9268D2*
X11871D1*
X4125Y7754D2*
X4188D1*
X5721D2*
X11871D1*
X4125Y7694D2*
X4150D1*
X5721D2*
X11871D1*
X5721Y7633D2*
X11871D1*
X5721Y7573D2*
X11871D1*
X5721Y7513D2*
X11871D1*
X5721Y7453D2*
X11871D1*
X5721Y7393D2*
X11871D1*
X5721Y7333D2*
X11871D1*
X4125Y7273D2*
X4170D1*
X5721D2*
X11871D1*
X4125Y7213D2*
X4216D1*
X5721D2*
X11871D1*
X4125Y7153D2*
X4284D1*
X4787D2*
X4851D1*
X5721D2*
X11871D1*
X4125Y7092D2*
X4407D1*
X4664D2*
X4851D1*
X5721D2*
X11871D1*
X4125Y7032D2*
X11871D1*
X4125Y6972D2*
X11871D1*
X4125Y6912D2*
X11871D1*
X4125Y6852D2*
X11871D1*
X4125Y6792D2*
X11871D1*
X4125Y6732D2*
X11871D1*
X4125Y6672D2*
X11871D1*
X4125Y6612D2*
X11871D1*
X4125Y6552D2*
X11871D1*
X4125Y6491D2*
X11871D1*
X4125Y6431D2*
X11871D1*
X4125Y6371D2*
X11871D1*
X4125Y6311D2*
X11871D1*
X4125Y6251D2*
X11871D1*
X4125Y6191D2*
X11871D1*
X4125Y6131D2*
X11871D1*
X4125Y6071D2*
X11871D1*
X4125Y6011D2*
X11871D1*
X4125Y5950D2*
X11871D1*
X4125Y5890D2*
X11871D1*
X4125Y5830D2*
X11871D1*
X4125Y5770D2*
X11871D1*
X4125Y5710D2*
X11871D1*
X4125Y5650D2*
X6800D1*
X7022D2*
X9675D1*
X9897D2*
X11425D1*
X11648D2*
X11871D1*
X4125Y5590D2*
X6704D1*
X7118D2*
X9579D1*
X9993D2*
X11329D1*
X11744D2*
X11871D1*
X4125Y5530D2*
X6655D1*
X11793D2*
X11871D1*
X4125Y5470D2*
X6626D1*
X11822D2*
X11871D1*
X4125Y5410D2*
X6613D1*
X11835D2*
X11872D1*
X4125Y5349D2*
X6612D1*
X11836D2*
X11870D1*
X4125Y5289D2*
X6623D1*
X11824D2*
X11871D1*
X4125Y5229D2*
X6649D1*
X11798D2*
X11871D1*
X4125Y5169D2*
X6694D1*
X7128D2*
X9569D1*
X10003D2*
X11320D1*
X11753D2*
X11871D1*
X4125Y5109D2*
X6778D1*
X7043D2*
X9654D1*
X9920D2*
X11403D1*
X11669D2*
X11871D1*
X4125Y5049D2*
X11871D1*
X4125Y4989D2*
X11871D1*
X4125Y4929D2*
X5976D1*
X6846D2*
X7396D1*
X7426D2*
X8396D1*
X8426D2*
X10396D1*
X10426D2*
X11871D1*
X4125Y4869D2*
X5976D1*
X6846D2*
X7186D1*
X7637D2*
X8186D1*
X8636D2*
X9186D1*
X9636D2*
X10186D1*
X10636D2*
X11185D1*
X11636D2*
X11871D1*
X4125Y4808D2*
X5976D1*
X6846D2*
X7107D1*
X7715D2*
X8107D1*
X8715D2*
X9107D1*
X9715D2*
X10107D1*
X10715D2*
X11107D1*
X11715D2*
X11871D1*
X4125Y4748D2*
X5976D1*
X6846D2*
X7055D1*
X7767D2*
X8055D1*
X8767D2*
X9055D1*
X9767D2*
X10055D1*
X10767D2*
X11055D1*
X11767D2*
X11871D1*
X4125Y4688D2*
X5976D1*
X6846D2*
X7020D1*
X7803D2*
X8020D1*
X8802D2*
X9020D1*
X9802D2*
X10020D1*
X10802D2*
X11019D1*
X11802D2*
X11871D1*
X4125Y4628D2*
X5976D1*
X6846D2*
X6996D1*
X7827D2*
X7996D1*
X8826D2*
X8996D1*
X9826D2*
X9996D1*
X10826D2*
X10995D1*
X11826D2*
X11871D1*
X4125Y4568D2*
X5976D1*
X6846D2*
X6981D1*
X7841D2*
X7981D1*
X8841D2*
X8981D1*
X9841D2*
X9981D1*
X10841D2*
X10981D1*
X11841D2*
X11871D1*
X4125Y4508D2*
X5976D1*
X6846D2*
X6976D1*
X7846D2*
X7975D1*
X8846D2*
X8975D1*
X9847D2*
X9975D1*
X10847D2*
X10976D1*
X11846D2*
X11871D1*
X4125Y4448D2*
X5976D1*
X6846D2*
X6979D1*
X7843D2*
X7979D1*
X8843D2*
X8979D1*
X9843D2*
X9979D1*
X10843D2*
X10979D1*
X11843D2*
X11871D1*
X4125Y4388D2*
X5976D1*
X6846D2*
X6991D1*
X7831D2*
X7991D1*
X8831D2*
X8991D1*
X9831D2*
X9991D1*
X10831D2*
X10991D1*
X11831D2*
X11871D1*
X4125Y4328D2*
X5976D1*
X6846D2*
X7012D1*
X7810D2*
X8012D1*
X8810D2*
X9012D1*
X9810D2*
X10012D1*
X10810D2*
X11012D1*
X11810D2*
X11871D1*
X4125Y4268D2*
X5976D1*
X6846D2*
X7044D1*
X7778D2*
X8044D1*
X8778D2*
X9044D1*
X9778D2*
X10043D1*
X10778D2*
X11044D1*
X11778D2*
X11871D1*
X4125Y4207D2*
X5976D1*
X6846D2*
X7091D1*
X7732D2*
X8091D1*
X8731D2*
X9091D1*
X9731D2*
X10091D1*
X10731D2*
X11090D1*
X11731D2*
X11871D1*
X4125Y4147D2*
X5976D1*
X6846D2*
X7160D1*
X7662D2*
X8160D1*
X8662D2*
X9160D1*
X9662D2*
X10160D1*
X10662D2*
X11160D1*
X11662D2*
X11871D1*
X5988Y4929D2*
X6840D1*
Y4118D1*
X7213Y4119D1*
X7177Y4140D1*
X7128Y4177D1*
X7085Y4220D1*
X7049Y4269D1*
X7020Y4324D1*
X6998Y4381D1*
X6986Y4441D1*
X6982Y4502D1*
X6987Y4564D1*
X7000Y4623D1*
X7022Y4681D1*
X7052Y4734D1*
X7089Y4783D1*
X7133Y4826D1*
X7182Y4863D1*
X7236Y4892D1*
X7294Y4913D1*
X7354Y4925D1*
X7415Y4929D1*
X7476Y4924D1*
X7536Y4910D1*
X7593Y4888D1*
X7647Y4858D1*
X7696Y4821D1*
X7738Y4777D1*
X7775Y4728D1*
X7803Y4673D1*
X7824Y4616D1*
X7837Y4555D1*
X7840Y4500D1*
X7836Y4438D1*
X7823Y4379D1*
X7801Y4321D1*
X7772Y4267D1*
X7735Y4218D1*
X7691Y4175D1*
X7642Y4138D1*
X7608Y4119D1*
X8213D1*
X8167Y4146D1*
X8128Y4177D1*
X8093Y4211D1*
X8062Y4249D1*
X8036Y4291D1*
X8015Y4335D1*
X7998Y4381D1*
X7988Y4429D1*
X7982Y4478D1*
X7983Y4527D1*
X7989Y4576D1*
X8000Y4623D1*
X8017Y4670D1*
X8039Y4713D1*
X8066Y4755D1*
X8097Y4792D1*
X8133Y4826D1*
X8172Y4856D1*
X8214Y4881D1*
X8259Y4901D1*
X8306Y4916D1*
X8354Y4925D1*
X8403Y4929D1*
X8452Y4927D1*
X8500Y4919D1*
X8548Y4907D1*
X8593Y4888D1*
X8637Y4865D1*
X8677Y4837D1*
X8714Y4804D1*
X8746Y4768D1*
X8775Y4728D1*
X8798Y4685D1*
X8817Y4639D1*
X8830Y4592D1*
X8838Y4543D1*
X8840Y4494D1*
X8837Y4445D1*
X8828Y4396D1*
X8813Y4349D1*
X8793Y4304D1*
X8768Y4262D1*
X8739Y4223D1*
X8705Y4187D1*
X8668Y4156D1*
X8627Y4129D1*
X8608Y4118D1*
X9213Y4119D1*
X9177Y4140D1*
X9128Y4177D1*
X9085Y4220D1*
X9049Y4269D1*
X9020Y4324D1*
X8998Y4381D1*
X8986Y4441D1*
X8982Y4502D1*
X8987Y4564D1*
X9000Y4623D1*
X9022Y4681D1*
X9052Y4734D1*
X9089Y4783D1*
X9133Y4826D1*
X9182Y4863D1*
X9236Y4892D1*
X9294Y4913D1*
X9354Y4925D1*
X9415Y4929D1*
X9476Y4924D1*
X9536Y4910D1*
X9593Y4888D1*
X9647Y4858D1*
X9696Y4821D1*
X9738Y4777D1*
X9775Y4728D1*
X9803Y4673D1*
X9824Y4616D1*
X9837Y4555D1*
X9840Y4500D1*
X9836Y4438D1*
X9823Y4379D1*
X9801Y4321D1*
X9772Y4267D1*
X9735Y4218D1*
X9691Y4175D1*
X9642Y4138D1*
X9608Y4119D1*
X10213D1*
X10167Y4146D1*
X10128Y4177D1*
X10093Y4211D1*
X10062Y4249D1*
X10036Y4291D1*
X10015Y4335D1*
X9998Y4381D1*
X9988Y4429D1*
X9982Y4478D1*
X9983Y4527D1*
X9989Y4576D1*
X10000Y4623D1*
X10017Y4670D1*
X10039Y4713D1*
X10066Y4755D1*
X10097Y4792D1*
X10133Y4826D1*
X10172Y4856D1*
X10214Y4881D1*
X10259Y4901D1*
X10306Y4916D1*
X10354Y4925D1*
X10403Y4929D1*
X10452Y4927D1*
X10500Y4919D1*
X10548Y4907D1*
X10593Y4888D1*
X10637Y4865D1*
X10677Y4837D1*
X10714Y4804D1*
X10746Y4768D1*
X10775Y4728D1*
X10798Y4685D1*
X10817Y4639D1*
X10830Y4592D1*
X10838Y4543D1*
X10840Y4494D1*
X10837Y4445D1*
X10828Y4396D1*
X10813Y4349D1*
X10793Y4304D1*
X10768Y4262D1*
X10739Y4223D1*
X10705Y4187D1*
X10668Y4156D1*
X10627Y4129D1*
X10608Y4118D1*
X11213Y4119D1*
X11177Y4140D1*
X11128Y4177D1*
X11085Y4220D1*
X11049Y4269D1*
X11020Y4324D1*
X10998Y4381D1*
X10986Y4441D1*
X10982Y4502D1*
X10987Y4564D1*
X11000Y4623D1*
X11022Y4681D1*
X11052Y4734D1*
X11089Y4783D1*
X11133Y4826D1*
X11182Y4863D1*
X11236Y4892D1*
X11294Y4913D1*
X11354Y4925D1*
X11415Y4929D1*
X11476Y4924D1*
X11536Y4910D1*
X11593Y4888D1*
X11647Y4858D1*
X11696Y4821D1*
X11738Y4777D1*
X11775Y4728D1*
X11803Y4673D1*
X11824Y4616D1*
X11837Y4555D1*
X11840Y4500D1*
X11836Y4438D1*
X11823Y4379D1*
X11801Y4321D1*
X11772Y4267D1*
X11735Y4218D1*
X11691Y4175D1*
X11642Y4138D1*
X11608Y4119D1*
X11877D1*
Y9016D1*
X4119Y9015D1*
Y8585D1*
X4132Y8634D1*
X4155Y8691D1*
X4187Y8744D1*
X4225Y8791D1*
X4270Y8833D1*
X4321Y8868D1*
X4376Y8895D1*
X4435Y8914D1*
X4495Y8924D1*
X4556Y8925D1*
X4617Y8918D1*
X4677Y8902D1*
X4733Y8877D1*
X4785Y8845D1*
X4832Y8806D1*
X4873Y8760D1*
X4907Y8709D1*
X4909Y8705D1*
X4927Y8735D1*
X4956Y8774D1*
X4989Y8810D1*
X5027Y8842D1*
X5067Y8869D1*
X5111Y8892D1*
X5157Y8909D1*
X5204Y8921D1*
X5253Y8928D1*
X5302Y8929D1*
X5351Y8924D1*
X5399Y8914D1*
X5446Y8898D1*
X5490Y8877D1*
X5532Y8852D1*
X5570Y8821D1*
X5605Y8787D1*
X5636Y8748D1*
X5662Y8707D1*
X5683Y8662D1*
X5699Y8616D1*
X5710Y8568D1*
X5715Y8519D1*
X5714Y8469D1*
X5708Y8421D1*
X5696Y8373D1*
X5679Y8327D1*
X5656Y8283D1*
X5629Y8242D1*
X5597Y8205D1*
X5562Y8171D1*
X5522Y8142D1*
X5480Y8117D1*
X5435Y8097D1*
X5388Y8083D1*
X5340Y8074D1*
X5291Y8071D1*
X5242Y8073D1*
X5193Y8081D1*
X5146Y8094D1*
X5100Y8113D1*
X5057Y8137D1*
X5017Y8165D1*
X4981Y8198D1*
X4948Y8235D1*
X4920Y8275D1*
X4908Y8294D1*
X4875Y8243D1*
X4834Y8197D1*
X4788Y8157D1*
X4736Y8124D1*
X4680Y8099D1*
X4620Y8083D1*
X4560Y8075D1*
X4498Y8076D1*
X4438Y8086D1*
X4379Y8104D1*
X4324Y8131D1*
X4273Y8165D1*
X4228Y8206D1*
X4189Y8254D1*
X4157Y8306D1*
X4133Y8363D1*
X4118Y8417D1*
X4119Y7585D1*
X4132Y7634D1*
X4155Y7691D1*
X4187Y7744D1*
X4225Y7791D1*
X4270Y7833D1*
X4321Y7868D1*
X4376Y7895D1*
X4435Y7913D1*
X4495Y7924D1*
X4556Y7925D1*
X4617Y7918D1*
X4677Y7902D1*
X4733Y7877D1*
X4785Y7845D1*
X4832Y7806D1*
X4856Y7780D1*
X4857Y7929D1*
X5715D1*
Y7071D1*
X4857D1*
X4855Y7219D1*
X4812Y7176D1*
X4762Y7140D1*
X4708Y7111D1*
X4650Y7090D1*
X4590Y7078D1*
X4529Y7074D1*
X4468Y7080D1*
X4408Y7094D1*
X4351Y7116D1*
X4298Y7147D1*
X4250Y7185D1*
X4207Y7229D1*
X4172Y7279D1*
X4144Y7334D1*
X4124Y7392D1*
X4118Y7417D1*
X4119Y4119D1*
X5982Y4120D1*
Y4929D1*
X5988D1*
X7888Y8929D2*
X8715D1*
Y8097D1*
X9095D1*
X9106Y8110D1*
X9053Y8140D1*
X9004Y8177D1*
X8960Y8221D1*
X8924Y8270D1*
X8895Y8324D1*
X8874Y8382D1*
X8861Y8442D1*
X8857Y8503D1*
X8862Y8564D1*
X8875Y8624D1*
X8897Y8681D1*
X8927Y8735D1*
X8964Y8784D1*
X9008Y8827D1*
X9057Y8863D1*
X9111Y8892D1*
X9169Y8913D1*
X9229Y8925D1*
X9290Y8929D1*
X9351Y8924D1*
X9411Y8911D1*
X9469Y8889D1*
X9522Y8859D1*
X9571Y8821D1*
X9614Y8778D1*
X9650Y8728D1*
X9679Y8674D1*
X9699Y8616D1*
X9712Y8556D1*
X9715Y8500D1*
X9711Y8439D1*
X9698Y8379D1*
X9676Y8321D1*
X9647Y8268D1*
X9610Y8219D1*
X9567Y8175D1*
X9517Y8139D1*
X9464Y8109D1*
X9446Y8101D1*
Y8062D1*
X9443Y8032D1*
X9434Y8003D1*
X9420Y7975D1*
X9399Y7950D1*
X9274Y7825D1*
X9250Y7805D1*
X9223Y7791D1*
X9194Y7781D1*
X9161Y7778D1*
X7724D1*
X7693Y7781D1*
X7664Y7790D1*
X7637Y7804D1*
X7611Y7825D1*
X7423Y8012D1*
X7404Y8036D1*
X7389Y8063D1*
X7380Y8092D1*
X7377Y8125D1*
Y8441D1*
X7341Y8467D1*
X7319Y8488D1*
X7300Y8512D1*
X7283Y8537D1*
X7268Y8564D1*
X7257Y8593D1*
X7249Y8623D1*
X7244Y8653D1*
X7242Y8683D1*
X7243Y8714D1*
X7247Y8744D1*
X7255Y8774D1*
X7265Y8803D1*
X7279Y8831D1*
X7295Y8857D1*
X7314Y8881D1*
X7335Y8903D1*
X7359Y8923D1*
X7384Y8940D1*
X7411Y8954D1*
X7439Y8966D1*
X7469Y8974D1*
X7499Y8980D1*
X7530Y8982D1*
X7560Y8981D1*
X7591Y8977D1*
X7621Y8970D1*
X7650Y8959D1*
X7677Y8946D1*
X7703Y8930D1*
X7728Y8911D1*
X7750Y8890D1*
X7770Y8867D1*
X7787Y8842D1*
X7802Y8815D1*
X7814Y8786D1*
X7822Y8757D1*
X7828Y8727D1*
X7831Y8688D1*
X7829Y8657D1*
X7824Y8627D1*
X7816Y8597D1*
X7805Y8568D1*
X7792Y8541D1*
X7775Y8515D1*
X7756Y8491D1*
X7734Y8469D1*
X7695Y8440D1*
X7696Y8191D1*
X7789Y8097D1*
X7857D1*
Y8929D1*
X7888D1*
X10714Y8469D2*
X10706Y8409D1*
X10688Y8350D1*
X10663Y8294D1*
X10629Y8242D1*
X10589Y8196D1*
X10543Y8156D1*
X10491Y8123D1*
X10435Y8098D1*
X10376Y8080D1*
X10315Y8072D1*
X10254D1*
X10193Y8081D1*
X10135Y8099D1*
X10079Y8124D1*
X10027Y8158D1*
X9981Y8198D1*
X9941Y8245D1*
X9908Y8296D1*
X9883Y8352D1*
X9866Y8411D1*
X9858Y8472D1*
Y8533D1*
X9867Y8594D1*
X9885Y8653D1*
X9911Y8709D1*
X9945Y8760D1*
X9985Y8806D1*
X10032Y8846D1*
X10084Y8879D1*
X10140Y8904D1*
X10199Y8920D1*
X10260Y8928D1*
X10321D1*
X10382Y8919D1*
X10440Y8901D1*
X10496Y8875D1*
X10547Y8841D1*
X10593Y8800D1*
X10633Y8753D1*
X10665Y8701D1*
X10690Y8645D1*
X10707Y8586D1*
X10715Y8525D1*
X10714Y8469D1*
X11714D2*
X11706Y8409D1*
X11688Y8350D1*
X11663Y8294D1*
X11629Y8242D1*
X11589Y8196D1*
X11543Y8156D1*
X11491Y8123D1*
X11435Y8098D1*
X11376Y8080D1*
X11315Y8072D1*
X11254D1*
X11193Y8081D1*
X11135Y8099D1*
X11079Y8124D1*
X11027Y8158D1*
X10981Y8198D1*
X10941Y8245D1*
X10908Y8296D1*
X10883Y8352D1*
X10866Y8411D1*
X10858Y8472D1*
Y8533D1*
X10867Y8594D1*
X10885Y8653D1*
X10911Y8709D1*
X10945Y8760D1*
X10985Y8806D1*
X11032Y8846D1*
X11084Y8879D1*
X11140Y8904D1*
X11199Y8920D1*
X11260Y8928D1*
X11321D1*
X11382Y8919D1*
X11440Y8901D1*
X11496Y8875D1*
X11547Y8841D1*
X11593Y8800D1*
X11633Y8753D1*
X11665Y8701D1*
X11690Y8645D1*
X11707Y8586D1*
X11715Y8525D1*
X11714Y8469D1*
X11290Y5215D2*
X10035D1*
X10006Y5178D1*
X9984Y5157D1*
X9960Y5137D1*
X9935Y5120D1*
X9908Y5106D1*
X9879Y5095D1*
X9849Y5087D1*
X9819Y5082D1*
X9788Y5080D1*
X9758Y5082D1*
X9727Y5086D1*
X9698Y5094D1*
X9669Y5105D1*
X9641Y5118D1*
X9616Y5135D1*
X9592Y5154D1*
X9570Y5175D1*
X9539Y5216D1*
X8220Y5215D1*
X7158D1*
X7131Y5178D1*
X7109Y5157D1*
X7085Y5137D1*
X7060Y5120D1*
X7032Y5106D1*
X7004Y5095D1*
X6974Y5087D1*
X6944Y5082D1*
X6913Y5080D1*
X6882Y5082D1*
X6852Y5086D1*
X6822Y5094D1*
X6794Y5105D1*
X6766Y5118D1*
X6740Y5135D1*
X6716Y5154D1*
X6694Y5175D1*
X6675Y5199D1*
X6658Y5224D1*
X6643Y5252D1*
X6632Y5280D1*
X6624Y5310D1*
X6619Y5340D1*
X6616Y5371D1*
X6618Y5401D1*
X6622Y5432D1*
X6629Y5461D1*
X6640Y5490D1*
X6653Y5518D1*
X6670Y5544D1*
X6689Y5568D1*
X6710Y5590D1*
X6733Y5610D1*
X6759Y5627D1*
X6786Y5641D1*
X6814Y5653D1*
X6844Y5662D1*
X6874Y5667D1*
X6905Y5669D1*
X6935Y5668D1*
X6966Y5664D1*
X6996Y5657D1*
X7025Y5647D1*
X7052Y5633D1*
X7078Y5617D1*
X7103Y5598D1*
X7125Y5577D1*
X7158Y5534D1*
X9539D1*
X9564Y5568D1*
X9585Y5590D1*
X9609Y5610D1*
X9634Y5627D1*
X9661Y5641D1*
X9690Y5653D1*
X9719Y5662D1*
X9749Y5667D1*
X9780Y5669D1*
X9811Y5668D1*
X9841Y5664D1*
X9871Y5657D1*
X9900Y5647D1*
X9928Y5633D1*
X9954Y5617D1*
X9978Y5598D1*
X10000Y5577D1*
X10034Y5534D1*
X11288D1*
X11314Y5568D1*
X11335Y5590D1*
X11359Y5610D1*
X11384Y5627D1*
X11411Y5641D1*
X11440Y5653D1*
X11469Y5662D1*
X11500Y5667D1*
X11530Y5669D1*
X11561Y5668D1*
X11591Y5664D1*
X11621Y5657D1*
X11650Y5647D1*
X11678Y5633D1*
X11704Y5617D1*
X11728Y5598D1*
X11750Y5577D1*
X11770Y5554D1*
X11788Y5529D1*
X11802Y5502D1*
X11814Y5473D1*
X11823Y5444D1*
X11828Y5414D1*
X11831Y5375D1*
X11829Y5344D1*
X11825Y5314D1*
X11817Y5284D1*
X11806Y5255D1*
X11792Y5228D1*
X11775Y5202D1*
X11756Y5178D1*
X11734Y5157D1*
X11711Y5137D1*
X11685Y5120D1*
X11658Y5106D1*
X11629Y5095D1*
X11600Y5087D1*
X11569Y5082D1*
X11539Y5080D1*
X11508Y5082D1*
X11478Y5086D1*
X11448Y5094D1*
X11419Y5105D1*
X11392Y5118D1*
X11366Y5135D1*
X11342Y5154D1*
X11320Y5175D1*
X11289Y5216D1*
X7159D2*
X7131Y5178D1*
X7109Y5157D1*
X7085Y5137D1*
X7060Y5120D1*
X7032Y5106D1*
X7004Y5095D1*
X6974Y5087D1*
X6944Y5082D1*
X6913Y5080D1*
X6882Y5082D1*
X6852Y5086D1*
X6822Y5094D1*
X6794Y5105D1*
X6766Y5118D1*
X6740Y5135D1*
X6716Y5154D1*
X6694Y5175D1*
X6675Y5199D1*
X6658Y5224D1*
X6643Y5252D1*
X6632Y5280D1*
X6624Y5310D1*
X6619Y5340D1*
X6616Y5371D1*
X6618Y5401D1*
X6622Y5432D1*
X6629Y5461D1*
X6640Y5490D1*
X6653Y5518D1*
X6670Y5544D1*
X6689Y5568D1*
X6710Y5590D1*
X6733Y5610D1*
X6759Y5627D1*
X6786Y5641D1*
X6814Y5653D1*
X6844Y5662D1*
X6874Y5667D1*
X6905Y5669D1*
X6935Y5668D1*
X6966Y5664D1*
X6996Y5657D1*
X7025Y5647D1*
X7052Y5633D1*
X7078Y5617D1*
X7103Y5598D1*
X7125Y5577D1*
X7158Y5534D1*
X7159Y5216D2*
X7131Y5178D1*
X7109Y5157D1*
X7085Y5137D1*
X7060Y5120D1*
X7032Y5106D1*
X7004Y5095D1*
X6974Y5087D1*
X6944Y5082D1*
X6913Y5080D1*
X6882Y5082D1*
X6852Y5086D1*
X6822Y5094D1*
X6794Y5105D1*
X6766Y5118D1*
X6740Y5135D1*
X6716Y5154D1*
X6694Y5175D1*
X6675Y5199D1*
X6658Y5224D1*
X6643Y5252D1*
X6632Y5280D1*
X6624Y5310D1*
X6619Y5340D1*
X6616Y5371D1*
X6618Y5401D1*
X6622Y5432D1*
X6629Y5461D1*
X6640Y5490D1*
X6653Y5518D1*
X6670Y5544D1*
X6689Y5568D1*
X6710Y5590D1*
X6733Y5610D1*
X6759Y5627D1*
X6786Y5641D1*
X6814Y5653D1*
X6844Y5662D1*
X6874Y5667D1*
X6905Y5669D1*
X6935Y5668D1*
X6966Y5664D1*
X6996Y5657D1*
X7025Y5647D1*
X7052Y5633D1*
X7078Y5617D1*
X7103Y5598D1*
X7125Y5577D1*
X7158Y5534D1*
X6411Y4929D2*
D13*
Y4500D1*
X5982D2*
X6840D1*
X8411Y4929D2*
Y4500D1*
X7982D2*
X8840D1*
X10411Y4929D2*
Y4500D1*
X9982D2*
X10840D1*
X5286Y8929D2*
Y8071D1*
Y8500D2*
X5715D1*
D16*
X6411Y4500D3*
D17*
X7411D3*
X8411D3*
X9411D3*
X10411D3*
X11411D3*
D16*
X5286Y7500D3*
D17*
Y8500D3*
D16*
X8286D3*
D17*
X9286D3*
X10286D3*
X11286D3*
M02*
