G04 DipTrace 2.4.0.2*
%INSquishyDuino.gtl*%
%MOIN*%
%ADD13C,0.013*%
%ADD14C,0.0061*%
%ADD15R,0.0394X0.0433*%
%ADD16R,0.0669X0.0669*%
%ADD17C,0.0669*%
%ADD18R,0.0433X0.0394*%
%ADD20R,0.0394X0.0591*%
%ADD21R,0.0787X0.0236*%
%ADD22C,0.04*%
%FSLAX44Y44*%
G04*
G70*
G90*
G75*
G01*
%LNTop*%
%LPD*%
X4661Y6188D2*
D13*
Y6169D1*
X5560D1*
X9628Y7246D2*
Y6746D1*
X9566Y6683D1*
X9300D1*
X9036Y6419D1*
Y5982D1*
X9911Y5107D1*
X9036Y6419D2*
X7973D1*
X7871Y6317D1*
Y5377D1*
X8128Y5121D1*
Y5107D1*
X8661D1*
X4628Y5121D2*
Y5044D1*
Y5121D2*
X5315D1*
X5253D1*
Y6169D1*
X5560D1*
X8473Y8607D2*
Y8591D1*
X7878Y7996D1*
Y7246D1*
X7940Y7183D1*
X8460D1*
X8473Y7169D1*
X7473Y8607D2*
X7489D1*
X6051Y7169D1*
X5560D1*
X5473Y8607D2*
Y7756D1*
X5560Y7669D1*
X5598Y4482D2*
X5753D1*
Y5044D1*
Y5263D1*
X6128Y5638D1*
Y6456D1*
X5915Y6669D1*
X5560D1*
X5753Y5044D2*
X5829Y5121D1*
X5985D1*
X7598Y4482D2*
Y5231D1*
X7487Y5121D1*
X7459D1*
Y6389D1*
X7753Y6683D1*
X8487D1*
X8473Y6669D1*
X9598Y4482D2*
X9286Y4794D1*
Y5089D1*
Y5338D1*
X8454Y6169D1*
X8473D1*
X9286Y5089D2*
X9268Y5107D1*
X9242D1*
X10724Y5609D2*
X10753D1*
Y7190D1*
X10809Y7246D1*
D22*
X8661Y5107D3*
X4628Y5121D3*
D3*
X10941Y8308D3*
Y8808D3*
X9566D3*
Y8308D3*
X11503D3*
Y8808D3*
X11661Y6919D3*
X9065Y8808D3*
Y8308D3*
X4125Y8956D2*
D14*
X5038D1*
X5909D2*
X6217D1*
X6729D2*
X7217D1*
X7729D2*
X8217D1*
X8729D2*
X11867D1*
X4125Y8896D2*
X5038D1*
X5909D2*
X6150D1*
X6796D2*
X7150D1*
X7796D2*
X8150D1*
X8797D2*
X11867D1*
X4125Y8835D2*
X5038D1*
X5909D2*
X6104D1*
X6842D2*
X7104D1*
X7842D2*
X8104D1*
X8842D2*
X11867D1*
X4125Y8775D2*
X5038D1*
X5909D2*
X6072D1*
X6874D2*
X7072D1*
X7874D2*
X8072D1*
X8874D2*
X11867D1*
X4125Y8715D2*
X5038D1*
X5909D2*
X6052D1*
X6894D2*
X7052D1*
X7894D2*
X8052D1*
X8894D2*
X11867D1*
X4125Y8655D2*
X5038D1*
X5909D2*
X6040D1*
X6906D2*
X7040D1*
X7906D2*
X8040D1*
X8906D2*
X11867D1*
X4125Y8595D2*
X5038D1*
X5909D2*
X6038D1*
X6908D2*
X7038D1*
X7909D2*
X8038D1*
X8909D2*
X11867D1*
X4125Y8535D2*
X5038D1*
X5909D2*
X6044D1*
X6902D2*
X7044D1*
X7902D2*
X8044D1*
X8902D2*
X11867D1*
X4125Y8475D2*
X5038D1*
X5909D2*
X6059D1*
X6888D2*
X7059D1*
X7888D2*
X8059D1*
X8887D2*
X11867D1*
X4125Y8415D2*
X5038D1*
X5909D2*
X6084D1*
X6863D2*
X7065D1*
X7863D2*
X8065D1*
X8863D2*
X11867D1*
X4125Y8355D2*
X5038D1*
X5909D2*
X6120D1*
X6826D2*
X7005D1*
X7826D2*
X8006D1*
X8826D2*
X11867D1*
X4125Y8295D2*
X5038D1*
X5909D2*
X6173D1*
X6773D2*
X6945D1*
X7773D2*
X7945D1*
X8773D2*
X11867D1*
X4125Y8234D2*
X5038D1*
X5909D2*
X6254D1*
X6692D2*
X6885D1*
X7692D2*
X7885D1*
X8692D2*
X11867D1*
X4125Y8174D2*
X5307D1*
X5639D2*
X6824D1*
X7288D2*
X7825D1*
X8289D2*
X11867D1*
X4125Y8114D2*
X5307D1*
X5639D2*
X6765D1*
X7228D2*
X7765D1*
X8228D2*
X11867D1*
X4125Y8054D2*
X5307D1*
X5639D2*
X6704D1*
X7168D2*
X7724D1*
X8168D2*
X11867D1*
X4125Y7994D2*
X5307D1*
X5639D2*
X6645D1*
X7107D2*
X7712D1*
X8108D2*
X11867D1*
X4125Y7934D2*
X5307D1*
X5639D2*
X6585D1*
X7048D2*
X7712D1*
X8048D2*
X11867D1*
X4125Y7874D2*
X5065D1*
X6055D2*
X6524D1*
X6987D2*
X7712D1*
X8968D2*
X11867D1*
X4125Y7814D2*
X5065D1*
X6055D2*
X6465D1*
X6927D2*
X7712D1*
X8968D2*
X11867D1*
X4125Y7754D2*
X5065D1*
X6055D2*
X6404D1*
X6867D2*
X7712D1*
X8968D2*
X11867D1*
X4125Y7693D2*
X5065D1*
X6055D2*
X6344D1*
X6807D2*
X7712D1*
X8968D2*
X11867D1*
X4125Y7633D2*
X5065D1*
X6055D2*
X6284D1*
X6747D2*
X7712D1*
X8968D2*
X9331D1*
X9926D2*
X10511D1*
X11106D2*
X11867D1*
X4125Y7573D2*
X5065D1*
X6055D2*
X6224D1*
X6687D2*
X7712D1*
X8968D2*
X9331D1*
X9926D2*
X10511D1*
X11106D2*
X11867D1*
X4125Y7513D2*
X5065D1*
X6055D2*
X6163D1*
X6627D2*
X7712D1*
X8968D2*
X9331D1*
X9926D2*
X10511D1*
X11106D2*
X11867D1*
X4125Y7453D2*
X6104D1*
X6567D2*
X7712D1*
X8044D2*
X9331D1*
X9926D2*
X10511D1*
X11106D2*
X11867D1*
X4125Y7393D2*
X6043D1*
X6507D2*
X7712D1*
X8044D2*
X9331D1*
X9926D2*
X10511D1*
X11106D2*
X11867D1*
X4125Y7333D2*
X5065D1*
X6446D2*
X7712D1*
X8968D2*
X9331D1*
X9926D2*
X10511D1*
X11106D2*
X11867D1*
X4125Y7273D2*
X5065D1*
X6387D2*
X7712D1*
X8968D2*
X9331D1*
X9926D2*
X10511D1*
X11106D2*
X11867D1*
X4125Y7213D2*
X5065D1*
X6326D2*
X7716D1*
X8968D2*
X9331D1*
X9926D2*
X10511D1*
X11106D2*
X11867D1*
X4125Y7153D2*
X4363D1*
X4959D2*
X5065D1*
X6267D2*
X7742D1*
X8968D2*
X9331D1*
X9926D2*
X10511D1*
X11106D2*
X11867D1*
X4125Y7092D2*
X4363D1*
X4959D2*
X5065D1*
X6206D2*
X7799D1*
X8968D2*
X9331D1*
X9926D2*
X10511D1*
X11106D2*
X11867D1*
X4125Y7032D2*
X4363D1*
X4959D2*
X5065D1*
X6139D2*
X7882D1*
X8968D2*
X9331D1*
X9926D2*
X10511D1*
X11106D2*
X11867D1*
X4125Y6972D2*
X4363D1*
X4959D2*
X5065D1*
X6055D2*
X7979D1*
X8968D2*
X9331D1*
X9926D2*
X10511D1*
X11106D2*
X11867D1*
X4125Y6912D2*
X4363D1*
X4959D2*
X9331D1*
X9926D2*
X10511D1*
X11106D2*
X11867D1*
X4125Y6852D2*
X4363D1*
X4959D2*
X5065D1*
X6055D2*
X7979D1*
X8968D2*
X9462D1*
X9793D2*
X10587D1*
X10919D2*
X11867D1*
X4125Y6792D2*
X4363D1*
X4959D2*
X5065D1*
X6055D2*
X7631D1*
X8968D2*
X9176D1*
X9793D2*
X10587D1*
X10919D2*
X11867D1*
X4125Y6732D2*
X4363D1*
X4959D2*
X5065D1*
X6083D2*
X7570D1*
X8968D2*
X9117D1*
X9793D2*
X10587D1*
X10919D2*
X11867D1*
X4125Y6672D2*
X4363D1*
X4959D2*
X5065D1*
X6144D2*
X7510D1*
X8968D2*
X9057D1*
X9775D2*
X10587D1*
X10919D2*
X11867D1*
X4125Y6612D2*
X4363D1*
X4959D2*
X5065D1*
X6204D2*
X7450D1*
X8968D2*
X8996D1*
X9725D2*
X10587D1*
X10919D2*
X11867D1*
X4125Y6551D2*
X4363D1*
X4959D2*
X5065D1*
X6262D2*
X7390D1*
X9662D2*
X10587D1*
X10919D2*
X11867D1*
X4125Y6491D2*
X4363D1*
X4959D2*
X5065D1*
X6290D2*
X7330D1*
X7792D2*
X7814D1*
X9339D2*
X10587D1*
X10919D2*
X11867D1*
X4125Y6431D2*
X4363D1*
X4959D2*
X5921D1*
X6294D2*
X7298D1*
X7733D2*
X7754D1*
X9279D2*
X10587D1*
X10919D2*
X11867D1*
X4125Y6371D2*
X4363D1*
X4959D2*
X5065D1*
X6294D2*
X7293D1*
X7673D2*
X7715D1*
X9219D2*
X10587D1*
X10919D2*
X11867D1*
X4125Y6311D2*
X4363D1*
X6294D2*
X7293D1*
X7625D2*
X7705D1*
X9201D2*
X10587D1*
X10919D2*
X11867D1*
X4125Y6251D2*
X4363D1*
X6294D2*
X7293D1*
X7625D2*
X7705D1*
X9201D2*
X10587D1*
X10919D2*
X11867D1*
X4125Y6191D2*
X4363D1*
X6294D2*
X7293D1*
X7625D2*
X7705D1*
X9201D2*
X10587D1*
X10919D2*
X11867D1*
X4125Y6131D2*
X4363D1*
X6294D2*
X7293D1*
X7625D2*
X7705D1*
X9201D2*
X10587D1*
X10919D2*
X11867D1*
X4125Y6071D2*
X4363D1*
X6294D2*
X7293D1*
X7625D2*
X7705D1*
X9201D2*
X10587D1*
X10919D2*
X11867D1*
X4125Y6011D2*
X4363D1*
X6294D2*
X7293D1*
X7625D2*
X7705D1*
X9239D2*
X10289D1*
X11160D2*
X11451D1*
X11748D2*
X11867D1*
X4125Y5950D2*
X4363D1*
X4959D2*
X5087D1*
X5418D2*
X5963D1*
X6294D2*
X7293D1*
X7625D2*
X7705D1*
X8037D2*
X8441D1*
X9299D2*
X10289D1*
X11160D2*
X11339D1*
X4125Y5890D2*
X4363D1*
X4959D2*
X5087D1*
X5418D2*
X5963D1*
X6294D2*
X7293D1*
X7625D2*
X7705D1*
X8037D2*
X8502D1*
X9359D2*
X10289D1*
X11160D2*
X11273D1*
X4125Y5830D2*
X5087D1*
X5418D2*
X5963D1*
X6294D2*
X7293D1*
X7625D2*
X7705D1*
X8037D2*
X8561D1*
X9419D2*
X10289D1*
X11160D2*
X11229D1*
X4125Y5770D2*
X5087D1*
X5418D2*
X5963D1*
X6294D2*
X7293D1*
X7625D2*
X7705D1*
X8037D2*
X8622D1*
X9480D2*
X10289D1*
X11160D2*
X11199D1*
X4125Y5710D2*
X5087D1*
X5418D2*
X5963D1*
X6294D2*
X7293D1*
X7625D2*
X7705D1*
X8037D2*
X8682D1*
X9539D2*
X10289D1*
X11160D2*
X11179D1*
X4125Y5650D2*
X5087D1*
X5418D2*
X5908D1*
X6294D2*
X7293D1*
X7625D2*
X7705D1*
X8037D2*
X8742D1*
X9600D2*
X10289D1*
X4125Y5590D2*
X5087D1*
X5418D2*
X5848D1*
X6286D2*
X7293D1*
X7625D2*
X7705D1*
X8037D2*
X8802D1*
X9659D2*
X10289D1*
X4125Y5530D2*
X5087D1*
X5418D2*
X5788D1*
X6251D2*
X7293D1*
X7625D2*
X7705D1*
X8037D2*
X8862D1*
X9719D2*
X10289D1*
X4125Y5470D2*
X5087D1*
X5418D2*
X5728D1*
X6191D2*
X7293D1*
X7625D2*
X7705D1*
X8037D2*
X8922D1*
X9780D2*
X10289D1*
X11160D2*
X11192D1*
X4125Y5409D2*
X4565D1*
X4691D2*
X4998D1*
X5632D2*
X5668D1*
X6302D2*
X7141D1*
X8445D2*
X8983D1*
X9839D2*
X10289D1*
X11160D2*
X11218D1*
X4125Y5349D2*
X4437D1*
X4820D2*
X4998D1*
X6302D2*
X7141D1*
X8445D2*
X8487D1*
X8834D2*
X8924D1*
X10228D2*
X10289D1*
X11160D2*
X11256D1*
X4125Y5289D2*
X4380D1*
X4875D2*
X4998D1*
X6302D2*
X7141D1*
X8898D2*
X8925D1*
X10228D2*
X10289D1*
X11160D2*
X11313D1*
X4125Y5229D2*
X4349D1*
X6302D2*
X7141D1*
X10228D2*
X10289D1*
X11160D2*
X11402D1*
X11797D2*
X11867D1*
X4125Y5169D2*
X4331D1*
X6302D2*
X7141D1*
X7776D2*
X7811D1*
X10228D2*
X11867D1*
X4125Y5109D2*
X4327D1*
X6302D2*
X7141D1*
X7776D2*
X7811D1*
X10228D2*
X11867D1*
X4125Y5049D2*
X4336D1*
X6302D2*
X7141D1*
X7776D2*
X7811D1*
X10228D2*
X11867D1*
X4125Y4989D2*
X4358D1*
X6302D2*
X7141D1*
X7776D2*
X7811D1*
X10228D2*
X10518D1*
X10931D2*
X11400D1*
X11799D2*
X11867D1*
X4125Y4929D2*
X4398D1*
X6302D2*
X7141D1*
X7776D2*
X7811D1*
X8901D2*
X8924D1*
X10228D2*
X10432D1*
X11017D2*
X11312D1*
X4125Y4869D2*
X4163D1*
X6302D2*
X6406D1*
X6790D2*
X7141D1*
X7790D2*
X7811D1*
X8839D2*
X8924D1*
X10228D2*
X10376D1*
X11073D2*
X11256D1*
X4125Y4808D2*
X4163D1*
X5034D2*
X5314D1*
X5918D2*
X6314D1*
X6882D2*
X7314D1*
X7882D2*
X8314D1*
X8882D2*
X9120D1*
X9883D2*
X10338D1*
X11111D2*
X11217D1*
X4125Y4748D2*
X4163D1*
X5034D2*
X5255D1*
X5940D2*
X6255D1*
X6940D2*
X7255D1*
X7940D2*
X8255D1*
X8940D2*
X9127D1*
X9940D2*
X10313D1*
X11137D2*
X11191D1*
X4125Y4688D2*
X4163D1*
X5034D2*
X5216D1*
X5980D2*
X6216D1*
X6981D2*
X7216D1*
X7981D2*
X8216D1*
X8981D2*
X9160D1*
X9980D2*
X10296D1*
X11152D2*
X11175D1*
X4125Y4628D2*
X4163D1*
X5034D2*
X5188D1*
X6008D2*
X6188D1*
X7008D2*
X7188D1*
X8007D2*
X8188D1*
X9007D2*
X9189D1*
X10007D2*
X10290D1*
X4125Y4568D2*
X4163D1*
X5034D2*
X5172D1*
X6025D2*
X6172D1*
X7025D2*
X7172D1*
X8025D2*
X8172D1*
X9025D2*
X9172D1*
X10025D2*
X10292D1*
X4125Y4508D2*
X4163D1*
X5034D2*
X5163D1*
X6033D2*
X6163D1*
X7032D2*
X7163D1*
X8032D2*
X8163D1*
X9032D2*
X9164D1*
X10032D2*
X10301D1*
X11147D2*
X11180D1*
X4125Y4448D2*
X4163D1*
X5034D2*
X5164D1*
X6032D2*
X6164D1*
X7031D2*
X7164D1*
X8031D2*
X8164D1*
X9032D2*
X9164D1*
X10032D2*
X10320D1*
X11128D2*
X11199D1*
X4125Y4388D2*
X4163D1*
X5034D2*
X5173D1*
X6023D2*
X6173D1*
X7023D2*
X7173D1*
X8023D2*
X8173D1*
X9023D2*
X9174D1*
X10023D2*
X10351D1*
X11098D2*
X11230D1*
X4125Y4328D2*
X4163D1*
X5034D2*
X5191D1*
X6005D2*
X6191D1*
X7005D2*
X7191D1*
X8005D2*
X8191D1*
X9005D2*
X9191D1*
X10004D2*
X10394D1*
X11054D2*
X11274D1*
X4125Y4267D2*
X4163D1*
X5034D2*
X5220D1*
X5976D2*
X6220D1*
X6976D2*
X7220D1*
X7976D2*
X8220D1*
X8976D2*
X9220D1*
X9976D2*
X10459D1*
X10990D2*
X11340D1*
X4125Y4207D2*
X4163D1*
X5034D2*
X5262D1*
X5935D2*
X6262D1*
X6935D2*
X7262D1*
X7935D2*
X8262D1*
X8934D2*
X9262D1*
X9934D2*
X10568D1*
X10881D2*
X11454D1*
X11745D2*
X11867D1*
X4125Y4147D2*
X4163D1*
X5034D2*
X5323D1*
X5873D2*
X6323D1*
X6873D2*
X7322D1*
X7873D2*
X8322D1*
X8873D2*
X9323D1*
X9873D2*
X11867D1*
X4376Y7168D2*
X4952D1*
Y6546D1*
X4369D1*
Y7168D1*
X4376D1*
X4400Y6499D2*
X4952D1*
Y6329D1*
X5072D1*
Y6382D1*
X5969D1*
X5950Y6408D1*
X5902Y6456D1*
X5072Y6457D1*
Y6882D1*
X6048D1*
X6049Y6760D1*
X6241Y6569D1*
X6260Y6545D1*
X6275Y6518D1*
X6284Y6489D1*
X6287Y6456D1*
Y5638D1*
X6284Y5607D1*
X6276Y5578D1*
X6262Y5551D1*
X6241Y5525D1*
X6127Y5412D1*
X6296D1*
Y4829D1*
X5912D1*
Y4774D1*
X5945Y4735D1*
X5977Y4683D1*
X6002Y4627D1*
X6018Y4568D1*
X6026Y4507D1*
Y4451D1*
X6017Y4390D1*
X6000Y4331D1*
X5975Y4276D1*
X5941Y4224D1*
X5901Y4178D1*
X5855Y4138D1*
X5832Y4122D1*
X6363D1*
X6320Y4155D1*
X6285Y4188D1*
X6253Y4226D1*
X6226Y4267D1*
X6204Y4311D1*
X6187Y4357D1*
X6176Y4405D1*
X6170Y4454D1*
X6169Y4503D1*
X6174Y4552D1*
X6185Y4599D1*
X6201Y4646D1*
X6223Y4690D1*
X6249Y4732D1*
X6280Y4770D1*
X6315Y4804D1*
X6354Y4834D1*
X6395Y4860D1*
X6440Y4881D1*
X6487Y4896D1*
X6535Y4906D1*
X6584Y4911D1*
X6633Y4909D1*
X6681Y4903D1*
X6729Y4890D1*
X6775Y4873D1*
X6818Y4850D1*
X6859Y4822D1*
X6896Y4790D1*
X6929Y4754D1*
X6958Y4715D1*
X6983Y4672D1*
X7002Y4627D1*
X7016Y4580D1*
X7024Y4531D1*
X7027Y4482D1*
X7024Y4433D1*
X7016Y4384D1*
X7002Y4337D1*
X6983Y4292D1*
X6959Y4249D1*
X6930Y4209D1*
X6897Y4173D1*
X6859Y4141D1*
X6832Y4122D1*
X7365D1*
X7315Y4159D1*
X7272Y4202D1*
X7236Y4251D1*
X7207Y4305D1*
X7185Y4363D1*
X7173Y4423D1*
X7169Y4484D1*
X7174Y4545D1*
X7187Y4605D1*
X7209Y4663D1*
X7239Y4716D1*
X7276Y4765D1*
X7320Y4808D1*
X7346Y4829D1*
X7147D1*
Y5412D1*
X7300D1*
X7299Y5520D1*
Y6389D1*
X7302Y6419D1*
X7311Y6449D1*
X7325Y6476D1*
X7346Y6502D1*
X7640Y6796D1*
X7664Y6815D1*
X7691Y6830D1*
X7720Y6839D1*
X7753Y6843D1*
X7986D1*
X7985Y6882D1*
X8962D1*
Y6578D1*
X8988Y6597D1*
X9187Y6796D1*
X9210Y6815D1*
X9237Y6830D1*
X9267Y6839D1*
X9300Y6843D1*
X9469D1*
X9459Y6856D1*
X9337D1*
Y7635D1*
X9919D1*
Y6856D1*
X9788D1*
Y6746D1*
X9785Y6715D1*
X9776Y6686D1*
X9762Y6658D1*
X9741Y6633D1*
X9678Y6570D1*
X9655Y6551D1*
X9628Y6536D1*
X9598Y6527D1*
X9566Y6523D1*
X9365D1*
X9196Y6354D1*
X9195Y6048D1*
X9845Y5398D1*
X10222D1*
Y4815D1*
X9868D1*
X9905Y4782D1*
X9945Y4735D1*
X9977Y4683D1*
X10002Y4627D1*
X10018Y4568D1*
X10026Y4507D1*
Y4451D1*
X10017Y4390D1*
X10000Y4331D1*
X9975Y4276D1*
X9941Y4224D1*
X9901Y4178D1*
X9855Y4138D1*
X9832Y4122D1*
X11795D1*
X11873D1*
Y4284D1*
X11826Y4249D1*
X11772Y4220D1*
X11714Y4199D1*
X11654Y4187D1*
X11593Y4184D1*
X11531Y4189D1*
X11472Y4203D1*
X11415Y4226D1*
X11361Y4256D1*
X11313Y4294D1*
X11271Y4339D1*
X11235Y4389D1*
X11207Y4443D1*
X11188Y4502D1*
X11176Y4562D1*
X11174Y4623D1*
X11180Y4684D1*
X11195Y4744D1*
X11219Y4800D1*
X11250Y4853D1*
X11289Y4901D1*
X11334Y4942D1*
X11385Y4977D1*
X11440Y5004D1*
X11498Y5023D1*
X11559Y5033D1*
X11620Y5035D1*
X11681Y5027D1*
X11740Y5011D1*
X11796Y4987D1*
X11849Y4955D1*
X11874Y4935D1*
X11873Y5284D1*
X11826Y5249D1*
X11772Y5220D1*
X11714Y5199D1*
X11654Y5187D1*
X11593Y5184D1*
X11531Y5189D1*
X11472Y5203D1*
X11415Y5226D1*
X11361Y5256D1*
X11313Y5294D1*
X11271Y5339D1*
X11235Y5389D1*
X11207Y5443D1*
X11188Y5502D1*
X11176Y5562D1*
X11174Y5623D1*
X11180Y5684D1*
X11195Y5744D1*
X11219Y5800D1*
X11250Y5853D1*
X11289Y5901D1*
X11334Y5942D1*
X11385Y5977D1*
X11440Y6004D1*
X11498Y6023D1*
X11559Y6033D1*
X11620Y6035D1*
X11681Y6027D1*
X11740Y6011D1*
X11796Y5987D1*
X11849Y5955D1*
X11874Y5935D1*
X11873Y9016D1*
X8604D1*
X8655Y8996D1*
X8709Y8966D1*
X8758Y8928D1*
X8801Y8884D1*
X8837Y8835D1*
X8866Y8781D1*
X8886Y8723D1*
X8899Y8663D1*
X8902Y8607D1*
X8898Y8546D1*
X8885Y8486D1*
X8863Y8428D1*
X8834Y8375D1*
X8797Y8325D1*
X8754Y8282D1*
X8704Y8245D1*
X8650Y8216D1*
X8593Y8195D1*
X8533Y8182D1*
X8472Y8178D1*
X8411Y8182D1*
X8351Y8196D1*
X8315Y8208D1*
X8037Y7929D1*
Y7881D1*
X8089Y7882D1*
X8962D1*
Y7457D1*
X8037D1*
Y7382D1*
X8962D1*
Y6957D1*
X7985D1*
Y7023D1*
X7940D1*
X7910Y7026D1*
X7880Y7035D1*
X7853Y7049D1*
X7828Y7070D1*
X7765Y7133D1*
X7746Y7156D1*
X7731Y7183D1*
X7722Y7213D1*
X7718Y7246D1*
Y7996D1*
X7721Y8026D1*
X7730Y8055D1*
X7744Y8083D1*
X7765Y8108D1*
X8083Y8427D1*
X8061Y8488D1*
X8048Y8549D1*
X8044Y8610D1*
X8049Y8671D1*
X8062Y8731D1*
X8084Y8788D1*
X8114Y8842D1*
X8151Y8891D1*
X8195Y8934D1*
X8244Y8970D1*
X8298Y8999D1*
X8342Y9016D1*
X7604D1*
X7655Y8996D1*
X7709Y8966D1*
X7758Y8928D1*
X7801Y8884D1*
X7837Y8835D1*
X7866Y8781D1*
X7886Y8723D1*
X7899Y8663D1*
X7902Y8607D1*
X7898Y8546D1*
X7885Y8486D1*
X7863Y8428D1*
X7834Y8375D1*
X7797Y8325D1*
X7754Y8282D1*
X7704Y8245D1*
X7650Y8216D1*
X7593Y8195D1*
X7533Y8182D1*
X7472Y8178D1*
X7411Y8182D1*
X7351Y8196D1*
X7315Y8208D1*
X6164Y7057D1*
X6141Y7037D1*
X6114Y7022D1*
X6084Y7013D1*
X6049Y7010D1*
X6048Y6957D1*
X5072D1*
Y7382D1*
X6038D1*
X7083Y8427D1*
X7061Y8488D1*
X7048Y8549D1*
X7044Y8610D1*
X7049Y8671D1*
X7062Y8731D1*
X7084Y8788D1*
X7114Y8842D1*
X7151Y8891D1*
X7195Y8934D1*
X7244Y8970D1*
X7298Y8999D1*
X7344Y9016D1*
X6604D1*
X6655Y8996D1*
X6709Y8966D1*
X6758Y8928D1*
X6801Y8884D1*
X6837Y8835D1*
X6866Y8781D1*
X6886Y8723D1*
X6899Y8663D1*
X6902Y8607D1*
X6898Y8546D1*
X6885Y8486D1*
X6863Y8428D1*
X6834Y8375D1*
X6797Y8325D1*
X6754Y8282D1*
X6704Y8245D1*
X6650Y8216D1*
X6593Y8195D1*
X6533Y8182D1*
X6472Y8178D1*
X6411Y8182D1*
X6351Y8196D1*
X6293Y8217D1*
X6239Y8247D1*
X6190Y8284D1*
X6147Y8328D1*
X6111Y8377D1*
X6082Y8431D1*
X6061Y8488D1*
X6048Y8549D1*
X6044Y8610D1*
X6049Y8671D1*
X6062Y8731D1*
X6084Y8788D1*
X6114Y8842D1*
X6151Y8891D1*
X6195Y8934D1*
X6244Y8970D1*
X6298Y8999D1*
X6344Y9016D1*
X5901D1*
X5902Y8883D1*
Y8178D1*
X5633Y8177D1*
Y7883D1*
X6048Y7882D1*
Y7457D1*
X5072D1*
Y7882D1*
X5314D1*
Y8094D1*
Y8177D1*
X5044Y8178D1*
Y9015D1*
X4534Y9016D1*
X4118D1*
Y4122D1*
X4169D1*
Y4911D1*
X4421D1*
X4392Y4945D1*
X4375Y4970D1*
X4360Y4997D1*
X4349Y5026D1*
X4341Y5055D1*
X4335Y5086D1*
X4333Y5116D1*
X4335Y5147D1*
X4339Y5177D1*
X4346Y5207D1*
X4357Y5236D1*
X4370Y5264D1*
X4387Y5290D1*
X4406Y5314D1*
X4427Y5336D1*
X4450Y5356D1*
X4476Y5373D1*
X4503Y5387D1*
X4531Y5399D1*
X4561Y5407D1*
X4591Y5413D1*
X4622Y5415D1*
X4652Y5414D1*
X4683Y5410D1*
X4713Y5403D1*
X4741Y5392D1*
X4769Y5379D1*
X4795Y5363D1*
X4820Y5344D1*
X4842Y5323D1*
X4875Y5280D1*
X5005D1*
X5004Y5412D1*
X5094D1*
X5093Y5956D1*
X5072Y5957D1*
Y6009D1*
X4952Y6010D1*
Y5876D1*
X4369D1*
Y6499D1*
X4400D1*
X5027Y4829D2*
Y4122D1*
X5363D1*
X5315Y4159D1*
X5272Y4202D1*
X5236Y4251D1*
X5207Y4305D1*
X5185Y4363D1*
X5173Y4423D1*
X5169Y4484D1*
X5174Y4545D1*
X5187Y4605D1*
X5209Y4663D1*
X5239Y4716D1*
X5276Y4765D1*
X5320Y4808D1*
X5346Y4829D1*
X5027D1*
X8026Y4451D2*
X8017Y4390D1*
X8000Y4331D1*
X7975Y4276D1*
X7941Y4224D1*
X7901Y4178D1*
X7855Y4138D1*
X7834Y4122D1*
X8365D1*
X8339Y4139D1*
X8302Y4171D1*
X8268Y4207D1*
X8239Y4246D1*
X8214Y4289D1*
X8195Y4334D1*
X8181Y4381D1*
X8172Y4429D1*
X8169Y4478D1*
X8171Y4527D1*
X8179Y4576D1*
X8193Y4623D1*
X8211Y4668D1*
X8235Y4711D1*
X8264Y4751D1*
X8297Y4788D1*
X8334Y4820D1*
X8346Y4829D1*
X7849D1*
X7883Y4803D1*
X7926Y4759D1*
X7962Y4709D1*
X7990Y4655D1*
X8011Y4598D1*
X8024Y4537D1*
X8027Y4482D1*
X8026Y4451D1*
X7769Y4875D2*
X7817Y4851D1*
Y5206D1*
X7770Y5253D1*
Y4876D1*
X9027Y4475D2*
X9024Y4426D1*
X9015Y4378D1*
X9000Y4331D1*
X8980Y4286D1*
X8955Y4244D1*
X8926Y4205D1*
X8892Y4169D1*
X8855Y4138D1*
X8832Y4122D1*
X9365D1*
X9315Y4159D1*
X9272Y4202D1*
X9236Y4251D1*
X9207Y4305D1*
X9185Y4363D1*
X9173Y4423D1*
X9169Y4484D1*
X9174Y4545D1*
X9187Y4605D1*
X9204Y4651D1*
X9173Y4681D1*
X9154Y4705D1*
X9139Y4732D1*
X9130Y4761D1*
X9126Y4794D1*
Y4816D1*
X8930Y4815D1*
Y4988D1*
X8916Y4960D1*
X8900Y4934D1*
X8880Y4910D1*
X8859Y4889D1*
X8812Y4854D1*
X8854Y4826D1*
X8892Y4795D1*
X8926Y4759D1*
X8955Y4720D1*
X8980Y4677D1*
X9000Y4633D1*
X9014Y4586D1*
X9024Y4537D1*
X9027Y4488D1*
Y4475D1*
X10326Y6039D2*
X10594D1*
Y6856D1*
X10518D1*
Y7635D1*
X11101D1*
Y6856D1*
X10913D1*
Y6729D1*
Y6039D1*
X11154D1*
Y5180D1*
X10295D1*
Y6039D1*
X10326D1*
X11154Y4603D2*
X11150Y4554D1*
X11141Y4506D1*
X11126Y4459D1*
X11107Y4414D1*
X11082Y4372D1*
X11052Y4333D1*
X11019Y4297D1*
X10981Y4265D1*
X10940Y4238D1*
X10896Y4216D1*
X10850Y4199D1*
X10802Y4187D1*
X10754Y4181D1*
X10705D1*
X10656Y4186D1*
X10608Y4196D1*
X10561Y4212D1*
X10517Y4234D1*
X10476Y4260D1*
X10437Y4290D1*
X10403Y4325D1*
X10372Y4364D1*
X10347Y4406D1*
X10326Y4450D1*
X10310Y4497D1*
X10300Y4545D1*
X10295Y4594D1*
X10296Y4643D1*
X10303Y4692D1*
X10315Y4739D1*
X10333Y4785D1*
X10355Y4829D1*
X10383Y4869D1*
X10415Y4907D1*
X10451Y4940D1*
X10490Y4969D1*
X10533Y4994D1*
X10578Y5013D1*
X10625Y5027D1*
X10673Y5036D1*
X10722Y5039D1*
X10771Y5036D1*
X10820Y5028D1*
X10867Y5014D1*
X10912Y4995D1*
X10955Y4971D1*
X10995Y4943D1*
X11031Y4910D1*
X11064Y4873D1*
X11091Y4832D1*
X11114Y4789D1*
X11132Y4743D1*
X11145Y4696D1*
X11152Y4647D1*
X11154Y4603D1*
X8961Y5398D2*
X8999Y5399D1*
X8440Y5957D1*
X8030D1*
X8031Y5887D1*
Y5443D1*
X8062Y5412D1*
X8439D1*
Y5300D1*
X8460Y5322D1*
X8483Y5342D1*
X8509Y5359D1*
X8536Y5374D1*
X8564Y5385D1*
X8594Y5394D1*
X8624Y5399D1*
X8655Y5401D1*
X8685Y5400D1*
X8716Y5396D1*
X8745Y5389D1*
X8774Y5379D1*
X8802Y5365D1*
X8828Y5349D1*
X8852Y5331D1*
X8875Y5309D1*
X8895Y5286D1*
X8912Y5261D1*
X8931Y5224D1*
X8930Y5398D1*
X8961D1*
X7619Y5412D2*
X7713D1*
X7712Y5592D1*
Y6317D1*
X7715Y6348D1*
X7723Y6377D1*
X7738Y6404D1*
X7759Y6430D1*
X7852Y6524D1*
X7818D1*
X7618Y6323D1*
Y5413D1*
X5412Y5412D2*
X5627D1*
Y5359D1*
X5640Y5376D1*
X5968Y5704D1*
Y5958D1*
X5833Y5957D1*
X5412D1*
Y5494D1*
Y5412D1*
X4421Y4911D2*
X4392Y4945D1*
X4375Y4970D1*
X4360Y4997D1*
X4349Y5026D1*
X4341Y5055D1*
X4335Y5086D1*
X4333Y5116D1*
X4335Y5147D1*
X4339Y5177D1*
X4346Y5207D1*
X4357Y5236D1*
X4370Y5264D1*
X4387Y5290D1*
X4406Y5314D1*
X4427Y5336D1*
X4450Y5356D1*
X4476Y5373D1*
X4503Y5387D1*
X4531Y5399D1*
X4561Y5407D1*
X4591Y5413D1*
X4622Y5415D1*
X4652Y5414D1*
X4683Y5410D1*
X4713Y5403D1*
X4741Y5392D1*
X4769Y5379D1*
X4795Y5363D1*
X4820Y5344D1*
X4842Y5323D1*
X4875Y5280D1*
X4661Y7168D2*
D13*
Y6546D1*
X4369Y6857D2*
X4952D1*
X4169Y4482D2*
X5027D1*
X6598Y4911D2*
Y4482D1*
X6169D2*
X7027D1*
X8169D2*
X9027D1*
X10724Y5039D2*
Y4180D1*
X10295Y4609D2*
X11154D1*
X8473Y7882D2*
Y7457D1*
Y7669D2*
X8961D1*
D15*
X4661Y6857D3*
Y6188D3*
D16*
X4598Y4482D3*
D17*
X5598D3*
X6598D3*
X7598D3*
X8598D3*
X9598D3*
D16*
X10724Y5609D3*
D17*
Y4609D3*
D16*
X5473Y8607D3*
D17*
X6473D3*
X7473D3*
X8473D3*
D18*
X9911Y5107D3*
X9242D3*
X8128Y5121D3*
X7459D3*
X5315D3*
X5985D3*
D20*
X9628Y7246D3*
G36*
X10415Y6950D2*
Y7620D1*
X10652Y7856D1*
Y8722D1*
X10415Y8958D1*
X10022D1*
X9786Y8722D1*
Y7856D1*
X10022Y7620D1*
Y6950D1*
X10415D1*
G37*
D20*
X10809Y7246D3*
D21*
X8473Y6169D3*
Y6669D3*
Y7169D3*
Y7669D3*
X5560D3*
Y7169D3*
Y6669D3*
Y6169D3*
M02*
