G04 DipTrace 2.4.0.2*
%INSquishyDuinoRev2.gbo*%
%MOIN*%
%ADD12C,0.003*%
%ADD45C,0.0046*%
%FSLAX44Y44*%
G04*
G70*
G90*
G75*
G01*
%LNBotSilk*%
%LPD*%
X10160Y7408D2*
D12*
X10519D1*
X10146Y7378D2*
X10537D1*
X10138Y7348D2*
X10553D1*
X10133Y7318D2*
X10566D1*
X10130Y7288D2*
X10215D1*
X10453D2*
X10573D1*
X10125Y7258D2*
X10208D1*
X10471D2*
X10576D1*
X10118Y7228D2*
X10200D1*
X10482D2*
X10579D1*
X10110Y7198D2*
X10195D1*
X10491D2*
X10583D1*
X10105Y7168D2*
X10192D1*
X10500D2*
X10591D1*
X10101Y7138D2*
X10190D1*
X10508D2*
X10599D1*
X9472Y7108D2*
X9562D1*
X10095D2*
X10185D1*
X10514D2*
X10605D1*
X11147D2*
X11237D1*
X9442Y7078D2*
X9596D1*
X10084D2*
X10178D1*
X10518D2*
X10614D1*
X11113D2*
X11267D1*
X9412Y7049D2*
X9634D1*
X10056D2*
X10170D1*
X10523D2*
X10628D1*
X11074D2*
X11297D1*
X9382Y7019D2*
X9677D1*
X10012D2*
X10163D1*
X10532D2*
X10675D1*
X11026D2*
X11327D1*
X9352Y6989D2*
X9736D1*
X9941D2*
X10156D1*
X10546D2*
X10752D1*
X10961D2*
X11357D1*
X9322Y6959D2*
X9479D1*
X9557D2*
X9820D1*
X9836D2*
X10137D1*
X10565D2*
X10865D1*
X10868D2*
X11152D1*
X11237D2*
X11387D1*
X9294Y6929D2*
X9435D1*
X9608D2*
X10093D1*
X10607D2*
X11101D1*
X11267D2*
X11415D1*
X9269Y6899D2*
X9404D1*
X9656D2*
X10038D1*
X10661D2*
X11052D1*
X11296D2*
X11440D1*
X9248Y6869D2*
X9380D1*
X9704D2*
X9975D1*
X10723D2*
X11005D1*
X11319D2*
X11460D1*
X9242Y6839D2*
X9368D1*
X9752D2*
X9905D1*
X10786D2*
X10957D1*
X11337D2*
X11466D1*
X9248Y6809D2*
X9371D1*
X9801D2*
X9831D1*
X10848D2*
X10908D1*
X11335D2*
X11457D1*
X9259Y6779D2*
X9381D1*
X11321D2*
X11442D1*
X9275Y6749D2*
X9395D1*
X11305D2*
X11425D1*
X9294Y6719D2*
X9414D1*
X11286D2*
X11406D1*
X9313Y6689D2*
X9432D1*
X11267D2*
X11386D1*
X9332Y6660D2*
X9452D1*
X11248D2*
X11367D1*
X9352Y6630D2*
X9472D1*
X11231D2*
X11347D1*
X9371Y6600D2*
X9491D1*
X11215D2*
X11327D1*
X9387Y6570D2*
X9511D1*
X11201D2*
X11307D1*
X9398Y6540D2*
X9532D1*
X11191D2*
X11288D1*
X9404Y6510D2*
X9517D1*
X11185D2*
X11267D1*
X9398Y6480D2*
X9504D1*
X11192D2*
X11285D1*
X9390Y6450D2*
X9492D1*
X10250D2*
X10459D1*
X11203D2*
X11302D1*
X9381Y6420D2*
X9478D1*
X10182D2*
X10527D1*
X11216D2*
X11315D1*
X9371Y6390D2*
X9465D1*
X10126D2*
X10583D1*
X11230D2*
X11326D1*
X9356Y6360D2*
X9453D1*
X10082D2*
X10627D1*
X11245D2*
X11338D1*
X9339Y6330D2*
X9443D1*
X10045D2*
X10221D1*
X10447D2*
X10664D1*
X11259D2*
X11352D1*
X9297Y6300D2*
X9431D1*
X10013D2*
X10166D1*
X10512D2*
X10696D1*
X11273D2*
X11381D1*
X9231Y6271D2*
X9418D1*
X9986D2*
X10120D1*
X10562D2*
X10723D1*
X11286D2*
X11453D1*
X9145Y6241D2*
X9401D1*
X9964D2*
X10084D1*
X10602D2*
X10745D1*
X11300D2*
X11542D1*
X9060Y6211D2*
X9380D1*
X9946D2*
X10057D1*
X10635D2*
X10762D1*
X11319D2*
X11627D1*
X8988Y6181D2*
X9327D1*
X9929D2*
X10037D1*
X10663D2*
X10775D1*
X11375D2*
X11697D1*
X8955Y6151D2*
X9252D1*
X9915D2*
X10019D1*
X10685D2*
X10783D1*
X11450D2*
X11726D1*
X8943Y6121D2*
X9168D1*
X9903D2*
X10005D1*
X10702D2*
X10791D1*
X11532D2*
X11737D1*
X8937Y6091D2*
X9100D1*
X9897D2*
X9993D1*
X10715D2*
X10799D1*
X11601D2*
X11742D1*
X8935Y6061D2*
X9050D1*
X9893D2*
X9986D1*
X10722D2*
X10808D1*
X11653D2*
X11744D1*
X8934Y6031D2*
X9036D1*
X9892D2*
X9983D1*
X10726D2*
X10813D1*
X11673D2*
X11745D1*
X8933Y6001D2*
X9028D1*
X9891D2*
X9981D1*
X10727D2*
X10816D1*
X11680D2*
X11746D1*
X8933Y5971D2*
X9025D1*
X9891D2*
X9981D1*
X10728D2*
X10817D1*
X11682D2*
X11746D1*
X8933Y5941D2*
X9025D1*
X9891D2*
X9981D1*
X10727D2*
X10817D1*
X11681D2*
X11746D1*
X8933Y5911D2*
X9036D1*
X9891D2*
X9982D1*
X10723D2*
X10813D1*
X11665D2*
X11746D1*
X8933Y5882D2*
X9083D1*
X9892D2*
X9986D1*
X10715D2*
X10806D1*
X11614D2*
X11746D1*
X8935Y5852D2*
X9155D1*
X9896D2*
X9994D1*
X10704D2*
X10797D1*
X11541D2*
X11744D1*
X8939Y5822D2*
X9238D1*
X9904D2*
X10006D1*
X10690D2*
X10788D1*
X11459D2*
X11740D1*
X8965Y5792D2*
X9307D1*
X9916D2*
X10024D1*
X10675D2*
X10777D1*
X11392D2*
X11717D1*
X9038Y5762D2*
X9358D1*
X9929D2*
X10046D1*
X10656D2*
X10763D1*
X11340D2*
X11649D1*
X9127Y5732D2*
X9381D1*
X9945D2*
X10073D1*
X10632D2*
X10746D1*
X11318D2*
X11563D1*
X9211Y5702D2*
X9398D1*
X9963D2*
X10101D1*
X10601D2*
X10727D1*
X11301D2*
X11482D1*
X9271Y5672D2*
X9410D1*
X9986D2*
X10129D1*
X10567D2*
X10708D1*
X11288D2*
X11423D1*
X9315Y5642D2*
X9422D1*
X10012D2*
X10154D1*
X10536D2*
X10688D1*
X11274D2*
X11381D1*
X9334Y5612D2*
X9436D1*
X10035D2*
X10171D1*
X10512D2*
X10665D1*
X11260D2*
X11364D1*
X9349Y5582D2*
X9450D1*
X10052D2*
X10183D1*
X10510D2*
X10644D1*
X11248D2*
X11348D1*
X9362Y5552D2*
X9464D1*
X10063D2*
X10182D1*
X10514D2*
X10627D1*
X11238D2*
X11334D1*
X9376Y5523D2*
X9478D1*
X10062D2*
X10175D1*
X10521D2*
X10629D1*
X11226D2*
X11320D1*
X9389Y5493D2*
X9489D1*
X10057D2*
X10165D1*
X10531D2*
X10637D1*
X11213D2*
X11310D1*
X9398Y5463D2*
X9496D1*
X10049D2*
X10152D1*
X10543D2*
X10647D1*
X11201D2*
X11304D1*
X9403Y5433D2*
X9498D1*
X10040D2*
X10141D1*
X10557D2*
X10658D1*
X11192D2*
X11304D1*
X9393Y5403D2*
X9495D1*
X10030D2*
X10131D1*
X10572D2*
X10668D1*
X11196D2*
X11311D1*
X9378Y5373D2*
X9484D1*
X10020D2*
X10119D1*
X10585D2*
X10680D1*
X11205D2*
X11323D1*
X9361Y5343D2*
X9468D1*
X10010D2*
X10106D1*
X10597D2*
X10692D1*
X11220D2*
X11339D1*
X9342Y5313D2*
X9452D1*
X9999D2*
X10093D1*
X10608D2*
X10706D1*
X11239D2*
X11358D1*
X9322Y5283D2*
X9435D1*
X9986D2*
X10081D1*
X10619D2*
X10717D1*
X11257D2*
X11377D1*
X9302Y5253D2*
X9419D1*
X9972D2*
X10071D1*
X10629D2*
X10728D1*
X11277D2*
X11397D1*
X9283Y5223D2*
X9401D1*
X9958D2*
X10059D1*
X10639D2*
X10740D1*
X11297D2*
X11417D1*
X9263Y5193D2*
X9383D1*
X9942D2*
X10046D1*
X10650D2*
X10755D1*
X11317D2*
X11435D1*
X9249Y5163D2*
X9366D1*
X9921D2*
X10033D1*
X10663D2*
X10800D1*
X11336D2*
X11450D1*
X9239Y5134D2*
X9362D1*
X9771D2*
X9831D1*
X9894D2*
X10021D1*
X10677D2*
X10867D1*
X11357D2*
X11461D1*
X9239Y5104D2*
X9373D1*
X9722D2*
X10011D1*
X10691D2*
X10941D1*
X11337D2*
X11454D1*
X9251Y5074D2*
X9391D1*
X9675D2*
X9999D1*
X10706D2*
X11004D1*
X11315D2*
X11441D1*
X9271Y5044D2*
X9417D1*
X9627D2*
X9986D1*
X10722D2*
X11059D1*
X11284D2*
X11424D1*
X9296Y5014D2*
X9449D1*
X9573D2*
X9969D1*
X10739D2*
X11108D1*
X11241D2*
X11405D1*
X9324Y4984D2*
X9488D1*
X9510D2*
X9746D1*
X9861D2*
X9950D1*
X10758D2*
X10818D1*
X10973D2*
X11157D1*
X11183D2*
X11381D1*
X9353Y4954D2*
X9694D1*
X11011D2*
X11353D1*
X9383Y4924D2*
X9646D1*
X11054D2*
X11321D1*
X9418Y4894D2*
X9599D1*
X11101D2*
X11284D1*
X9458Y4864D2*
X9551D1*
X11153D2*
X11246D1*
X9502Y4834D2*
D3*
X11207D2*
D3*
X6850Y7445D2*
X6880D1*
X6821Y7416D2*
X6895D1*
X6795Y7386D2*
X6907D1*
X7059D2*
X7119D1*
X6773Y7356D2*
X6825D1*
X6874D2*
X6920D1*
X7034D2*
X7133D1*
X6755Y7326D2*
X6803D1*
X6891D2*
X6934D1*
X7012D2*
X7064D1*
X7119D2*
X7141D1*
X6739Y7296D2*
X6785D1*
X6901D2*
X6951D1*
X6991D2*
X7041D1*
X7119D2*
X7146D1*
X6724Y7266D2*
X6768D1*
X6905D2*
X7020D1*
X7119D2*
X7148D1*
X6712Y7236D2*
X6753D1*
X6903D2*
X7000D1*
X7119D2*
X7149D1*
X6701Y7206D2*
X6738D1*
X6897D2*
X6981D1*
X7119D2*
X7149D1*
X6690Y7176D2*
X6724D1*
X6890D2*
X6965D1*
X7118D2*
X7149D1*
X6680Y7146D2*
X6713D1*
X6884D2*
X6953D1*
X7114D2*
X7148D1*
X6670Y7116D2*
X6705D1*
X6882D2*
X6944D1*
X7107D2*
X7144D1*
X6660Y7086D2*
X6698D1*
X6881D2*
X6937D1*
X7099D2*
X7137D1*
X6651Y7056D2*
X6689D1*
X6880D2*
X6928D1*
X7093D2*
X7129D1*
X6645Y7027D2*
X6681D1*
X6879D2*
X6920D1*
X7086D2*
X7123D1*
X6641Y6997D2*
X6674D1*
X6875D2*
X6913D1*
X7078D2*
X7116D1*
X6635Y6967D2*
X6667D1*
X6866D2*
X6907D1*
X7069D2*
X7108D1*
X6624Y6937D2*
X6659D1*
X6855D2*
X6897D1*
X7063D2*
X7098D1*
X6597Y6907D2*
X6648D1*
X6842D2*
X6884D1*
X7056D2*
X7089D1*
X6559Y6877D2*
X6636D1*
X6830D2*
X6868D1*
X7048D2*
X7079D1*
X6512Y6847D2*
X6606D1*
X6820D2*
X6850D1*
X7039D2*
X7070D1*
X6463Y6817D2*
X6565D1*
X7029D2*
X7063D1*
X6418Y6787D2*
X6515D1*
X7018D2*
X7056D1*
X6378Y6757D2*
X6465D1*
X7005D2*
X7048D1*
X6339Y6727D2*
X6418D1*
X6992D2*
X7040D1*
X6301Y6697D2*
X6379D1*
X6982D2*
X7034D1*
X6267Y6668D2*
X6344D1*
X6976D2*
X7033D1*
X6239Y6638D2*
X6312D1*
X6461D2*
X6551D1*
X6975D2*
X7036D1*
X6215Y6608D2*
X6282D1*
X6461D2*
X6563D1*
X6987D2*
X7045D1*
X6193Y6578D2*
X6251D1*
X6461D2*
X6571D1*
X7003D2*
X7068D1*
X6173Y6548D2*
X6221D1*
X6461D2*
X6562D1*
X7022D2*
X7098D1*
X6157Y6518D2*
X6191D1*
X6461D2*
X6551D1*
X7046D2*
X7136D1*
X6145Y6488D2*
X6222D1*
X7078D2*
X7194D1*
X6138Y6458D2*
X6235D1*
X7119D2*
X7300D1*
X6134Y6428D2*
X6227D1*
X7169D2*
X7473D1*
X7628D2*
X7717D1*
X6134Y6398D2*
X6197D1*
X7231D2*
X7791D1*
X6138Y6368D2*
X6162D1*
X7299D2*
X7859D1*
X6147Y6338D2*
X6196D1*
X7777D2*
X7923D1*
X6170Y6308D2*
X6235D1*
X7837D2*
X7980D1*
X6200Y6279D2*
X6277D1*
X7897D2*
X8033D1*
X6236Y6249D2*
X6323D1*
X7957D2*
X8081D1*
X6277Y6219D2*
X6371D1*
X8015D2*
X8127D1*
X6319Y6189D2*
X6415D1*
X8070D2*
X8167D1*
X6359Y6159D2*
X6452D1*
X8118D2*
X8201D1*
X6395Y6129D2*
X6483D1*
X8158D2*
X8230D1*
X6428Y6099D2*
X6506D1*
X8193D2*
X8258D1*
X6459Y6069D2*
X6525D1*
X8224D2*
X8286D1*
X6485Y6039D2*
X6542D1*
X8251D2*
X8311D1*
X6507Y6009D2*
X6558D1*
X8274D2*
X8333D1*
X6526Y5979D2*
X6573D1*
X8295D2*
X8351D1*
X6542Y5949D2*
X6587D1*
X8316D2*
X8368D1*
X6556Y5919D2*
X6598D1*
X8336D2*
X8387D1*
X6568Y5890D2*
X6605D1*
X8355D2*
X8406D1*
X6575Y5860D2*
X6608D1*
X8375D2*
X8425D1*
X6578Y5830D2*
X6611D1*
X8391D2*
X8442D1*
X6580Y5800D2*
X6615D1*
X8404D2*
X8457D1*
X6581Y5770D2*
X6624D1*
X8420D2*
X8472D1*
X6586Y5740D2*
X6635D1*
X8436D2*
X8483D1*
X6598Y5710D2*
X6649D1*
X8450D2*
X8491D1*
X6613Y5680D2*
X6663D1*
X8458D2*
X8498D1*
X6627Y5650D2*
X6678D1*
X8464D2*
X8507D1*
X6639Y5620D2*
X6693D1*
X8469D2*
X8515D1*
X6654Y5590D2*
X6708D1*
X8477D2*
X8520D1*
X6671Y5560D2*
X6723D1*
X8485D2*
X8523D1*
X6686Y5531D2*
X6738D1*
X8490D2*
X8525D1*
X6699Y5501D2*
X6754D1*
X8493D2*
X8528D1*
X6714Y5471D2*
X6771D1*
X8495D2*
X8533D1*
X6732Y5441D2*
X6790D1*
X8495D2*
X8560D1*
X6750Y5411D2*
X6805D1*
X8495D2*
X8595D1*
X6765Y5381D2*
X6817D1*
X8495D2*
X8632D1*
X6777Y5351D2*
X6829D1*
X7089D2*
X7149D1*
X8495D2*
X8663D1*
X6784Y5321D2*
X6838D1*
X7078D2*
X7210D1*
X8495D2*
X8555D1*
X8646D2*
X8687D1*
X6787Y5291D2*
X6843D1*
X7065D2*
X7292D1*
X8495D2*
X8525D1*
X8651D2*
X8696D1*
X6786Y5261D2*
X6842D1*
X7051D2*
X7084D1*
X7187D2*
X7400D1*
X8661D2*
X8701D1*
X6782Y5231D2*
X6835D1*
X7035D2*
X7076D1*
X7280D2*
X7509D1*
X8675D2*
X8702D1*
X6760Y5201D2*
X6822D1*
X7018D2*
X7064D1*
X7411D2*
X7592D1*
X8651D2*
X8698D1*
X6732Y5171D2*
X6801D1*
X6998D2*
X7051D1*
X7568D2*
X7652D1*
X8622D2*
X8686D1*
X6703Y5142D2*
X6772D1*
X6979D2*
X7036D1*
X7468D2*
X7672D1*
X8589D2*
X8666D1*
X6677Y5112D2*
X6737D1*
X6957D2*
X7021D1*
X7387D2*
X7688D1*
X8552D2*
X8640D1*
X6657Y5082D2*
X6704D1*
X6924D2*
X7004D1*
X7352D2*
X7541D1*
X8508D2*
X8608D1*
X6651Y5052D2*
X6670D1*
X6871D2*
X6981D1*
X7337D2*
X7438D1*
X8458D2*
X8566D1*
X6661Y5022D2*
X6756D1*
X6793D2*
X6945D1*
X7335D2*
X7358D1*
X8403D2*
X8517D1*
X6679Y4992D2*
X6900D1*
X7345D2*
X7448D1*
X7508D2*
X8462D1*
X6700Y4962D2*
X6850D1*
X7358D2*
X8406D1*
X10160Y7408D2*
X10146Y7378D1*
X10138Y7348D1*
X10133Y7318D1*
X10130Y7288D1*
X10125Y7258D1*
X10118Y7228D1*
X10110Y7198D1*
X10105Y7168D1*
X10101Y7138D1*
X10095Y7108D1*
X10084Y7078D1*
X10056Y7049D1*
X10012Y7019D1*
X9941Y6989D1*
X9836Y6959D1*
X9711Y6929D1*
X10519Y7408D2*
X10537Y7378D1*
X10553Y7348D1*
X10566Y7318D1*
X10573Y7288D1*
X10576Y7258D1*
X10579Y7228D1*
X10583Y7198D1*
X10591Y7168D1*
X10599Y7138D1*
X10605Y7108D1*
X10614Y7078D1*
X10628Y7049D1*
X10675Y7019D1*
X10752Y6989D1*
X10865Y6959D1*
X10998Y6929D1*
X10220Y7318D2*
X10215Y7288D1*
X10208Y7258D1*
X10200Y7228D1*
X10195Y7198D1*
X10192Y7168D1*
X10190Y7138D1*
X10185Y7108D1*
X10178Y7078D1*
X10170Y7049D1*
X10163Y7019D1*
X10156Y6989D1*
X10137Y6959D1*
X10093Y6929D1*
X10038Y6899D1*
X9975Y6869D1*
X9905Y6839D1*
X9831Y6809D1*
X10429Y7318D2*
X10453Y7288D1*
X10471Y7258D1*
X10482Y7228D1*
X10491Y7198D1*
X10500Y7168D1*
X10508Y7138D1*
X10514Y7108D1*
X10518Y7078D1*
X10523Y7049D1*
X10532Y7019D1*
X10546Y6989D1*
X10565Y6959D1*
X10607Y6929D1*
X10661Y6899D1*
X10723Y6869D1*
X10786Y6839D1*
X10848Y6809D1*
X9472Y7108D2*
X9442Y7078D1*
X9412Y7049D1*
X9382Y7019D1*
X9352Y6989D1*
X9322Y6959D1*
X9294Y6929D1*
X9269Y6899D1*
X9248Y6869D1*
X9242Y6839D1*
X9248Y6809D1*
X9259Y6779D1*
X9275Y6749D1*
X9294Y6719D1*
X9313Y6689D1*
X9332Y6660D1*
X9352Y6630D1*
X9371Y6600D1*
X9387Y6570D1*
X9398Y6540D1*
X9404Y6510D1*
X9398Y6480D1*
X9390Y6450D1*
X9381Y6420D1*
X9371Y6390D1*
X9356Y6360D1*
X9339Y6330D1*
X9297Y6300D1*
X9231Y6271D1*
X9145Y6241D1*
X9060Y6211D1*
X8988Y6181D1*
X8955Y6151D1*
X8943Y6121D1*
X8937Y6091D1*
X8935Y6061D1*
X8934Y6031D1*
X8933Y6001D1*
Y5971D1*
Y5941D1*
Y5911D1*
Y5882D1*
X8935Y5852D1*
X8939Y5822D1*
X8965Y5792D1*
X9038Y5762D1*
X9127Y5732D1*
X9211Y5702D1*
X9271Y5672D1*
X9315Y5642D1*
X9334Y5612D1*
X9349Y5582D1*
X9362Y5552D1*
X9376Y5523D1*
X9389Y5493D1*
X9398Y5463D1*
X9403Y5433D1*
X9393Y5403D1*
X9378Y5373D1*
X9361Y5343D1*
X9342Y5313D1*
X9322Y5283D1*
X9302Y5253D1*
X9283Y5223D1*
X9263Y5193D1*
X9249Y5163D1*
X9239Y5134D1*
Y5104D1*
X9251Y5074D1*
X9271Y5044D1*
X9296Y5014D1*
X9324Y4984D1*
X9353Y4954D1*
X9383Y4924D1*
X9418Y4894D1*
X9458Y4864D1*
X9502Y4834D1*
X9562Y7108D2*
X9596Y7078D1*
X9634Y7049D1*
X9677Y7019D1*
X9736Y6989D1*
X9820Y6959D1*
X9921Y6929D1*
X11147Y7108D2*
X11113Y7078D1*
X11074Y7049D1*
X11026Y7019D1*
X10961Y6989D1*
X10868Y6959D1*
X10758Y6929D1*
X11237Y7108D2*
X11267Y7078D1*
X11297Y7049D1*
X11327Y7019D1*
X11357Y6989D1*
X11387Y6959D1*
X11415Y6929D1*
X11440Y6899D1*
X11460Y6869D1*
X11466Y6839D1*
X11457Y6809D1*
X11442Y6779D1*
X11425Y6749D1*
X11406Y6719D1*
X11386Y6689D1*
X11367Y6660D1*
X11347Y6630D1*
X11327Y6600D1*
X11307Y6570D1*
X11288Y6540D1*
X11267Y6510D1*
X11285Y6480D1*
X11302Y6450D1*
X11315Y6420D1*
X11326Y6390D1*
X11338Y6360D1*
X11352Y6330D1*
X11381Y6300D1*
X11453Y6271D1*
X11542Y6241D1*
X11627Y6211D1*
X11697Y6181D1*
X11726Y6151D1*
X11737Y6121D1*
X11742Y6091D1*
X11744Y6061D1*
X11745Y6031D1*
X11746Y6001D1*
Y5971D1*
Y5941D1*
Y5911D1*
Y5882D1*
X11744Y5852D1*
X11740Y5822D1*
X11717Y5792D1*
X11649Y5762D1*
X11563Y5732D1*
X11482Y5702D1*
X11423Y5672D1*
X11381Y5642D1*
X11364Y5612D1*
X11348Y5582D1*
X11334Y5552D1*
X11320Y5523D1*
X11310Y5493D1*
X11304Y5463D1*
Y5433D1*
X11311Y5403D1*
X11323Y5373D1*
X11339Y5343D1*
X11358Y5313D1*
X11377Y5283D1*
X11397Y5253D1*
X11417Y5223D1*
X11435Y5193D1*
X11450Y5163D1*
X11461Y5134D1*
X11454Y5104D1*
X11441Y5074D1*
X11424Y5044D1*
X11405Y5014D1*
X11381Y4984D1*
X11353Y4954D1*
X11321Y4924D1*
X11284Y4894D1*
X11246Y4864D1*
X11207Y4834D1*
X9532Y6989D2*
X9479Y6959D1*
X9435Y6929D1*
X9404Y6899D1*
X9380Y6869D1*
X9368Y6839D1*
X9371Y6809D1*
X9381Y6779D1*
X9395Y6749D1*
X9414Y6719D1*
X9432Y6689D1*
X9452Y6660D1*
X9472Y6630D1*
X9491Y6600D1*
X9511Y6570D1*
X9532Y6540D1*
X9517Y6510D1*
X9504Y6480D1*
X9492Y6450D1*
X9478Y6420D1*
X9465Y6390D1*
X9453Y6360D1*
X9443Y6330D1*
X9431Y6300D1*
X9418Y6271D1*
X9401Y6241D1*
X9380Y6211D1*
X9327Y6181D1*
X9252Y6151D1*
X9168Y6121D1*
X9100Y6091D1*
X9050Y6061D1*
X9036Y6031D1*
X9028Y6001D1*
X9025Y5971D1*
Y5941D1*
X9036Y5911D1*
X9083Y5882D1*
X9155Y5852D1*
X9238Y5822D1*
X9307Y5792D1*
X9358Y5762D1*
X9381Y5732D1*
X9398Y5702D1*
X9410Y5672D1*
X9422Y5642D1*
X9436Y5612D1*
X9450Y5582D1*
X9464Y5552D1*
X9478Y5523D1*
X9489Y5493D1*
X9496Y5463D1*
X9498Y5433D1*
X9495Y5403D1*
X9484Y5373D1*
X9468Y5343D1*
X9452Y5313D1*
X9435Y5283D1*
X9419Y5253D1*
X9401Y5223D1*
X9383Y5193D1*
X9366Y5163D1*
X9362Y5134D1*
X9373Y5104D1*
X9391Y5074D1*
X9417Y5044D1*
X9449Y5014D1*
X9488Y4984D1*
X9532Y4954D1*
X9502Y6989D2*
X9557Y6959D1*
X9608Y6929D1*
X9656Y6899D1*
X9704Y6869D1*
X9752Y6839D1*
X9801Y6809D1*
X11207Y6989D2*
X11152Y6959D1*
X11101Y6929D1*
X11052Y6899D1*
X11005Y6869D1*
X10957Y6839D1*
X10908Y6809D1*
X11207Y6989D2*
X11237Y6959D1*
X11267Y6929D1*
X11296Y6899D1*
X11319Y6869D1*
X11337Y6839D1*
X11335Y6809D1*
X11321Y6779D1*
X11305Y6749D1*
X11286Y6719D1*
X11267Y6689D1*
X11248Y6660D1*
X11231Y6630D1*
X11215Y6600D1*
X11201Y6570D1*
X11191Y6540D1*
X11185Y6510D1*
X11192Y6480D1*
X11203Y6450D1*
X11216Y6420D1*
X11230Y6390D1*
X11245Y6360D1*
X11259Y6330D1*
X11273Y6300D1*
X11286Y6271D1*
X11300Y6241D1*
X11319Y6211D1*
X11375Y6181D1*
X11450Y6151D1*
X11532Y6121D1*
X11601Y6091D1*
X11653Y6061D1*
X11673Y6031D1*
X11680Y6001D1*
X11682Y5971D1*
X11681Y5941D1*
X11665Y5911D1*
X11614Y5882D1*
X11541Y5852D1*
X11459Y5822D1*
X11392Y5792D1*
X11340Y5762D1*
X11318Y5732D1*
X11301Y5702D1*
X11288Y5672D1*
X11274Y5642D1*
X11260Y5612D1*
X11248Y5582D1*
X11238Y5552D1*
X11226Y5523D1*
X11213Y5493D1*
X11201Y5463D1*
X11192Y5433D1*
X11196Y5403D1*
X11205Y5373D1*
X11220Y5343D1*
X11239Y5313D1*
X11257Y5283D1*
X11277Y5253D1*
X11297Y5223D1*
X11317Y5193D1*
X11336Y5163D1*
X11357Y5134D1*
X11337Y5104D1*
X11315Y5074D1*
X11284Y5044D1*
X11241Y5014D1*
X11183Y4984D1*
X11117Y4954D1*
X10250Y6450D2*
X10182Y6420D1*
X10126Y6390D1*
X10082Y6360D1*
X10045Y6330D1*
X10013Y6300D1*
X9986Y6271D1*
X9964Y6241D1*
X9946Y6211D1*
X9929Y6181D1*
X9915Y6151D1*
X9903Y6121D1*
X9897Y6091D1*
X9893Y6061D1*
X9892Y6031D1*
X9891Y6001D1*
Y5971D1*
Y5941D1*
Y5911D1*
X9892Y5882D1*
X9896Y5852D1*
X9904Y5822D1*
X9916Y5792D1*
X9929Y5762D1*
X9945Y5732D1*
X9963Y5702D1*
X9986Y5672D1*
X10012Y5642D1*
X10035Y5612D1*
X10052Y5582D1*
X10063Y5552D1*
X10062Y5523D1*
X10057Y5493D1*
X10049Y5463D1*
X10040Y5433D1*
X10030Y5403D1*
X10020Y5373D1*
X10010Y5343D1*
X9999Y5313D1*
X9986Y5283D1*
X9972Y5253D1*
X9958Y5223D1*
X9942Y5193D1*
X9921Y5163D1*
X9894Y5134D1*
X9861Y5104D1*
X10459Y6450D2*
X10527Y6420D1*
X10583Y6390D1*
X10627Y6360D1*
X10664Y6330D1*
X10696Y6300D1*
X10723Y6271D1*
X10745Y6241D1*
X10762Y6211D1*
X10775Y6181D1*
X10783Y6151D1*
X10791Y6121D1*
X10799Y6091D1*
X10808Y6061D1*
X10813Y6031D1*
X10816Y6001D1*
X10817Y5971D1*
Y5941D1*
X10813Y5911D1*
X10806Y5882D1*
X10797Y5852D1*
X10788Y5822D1*
X10777Y5792D1*
X10763Y5762D1*
X10746Y5732D1*
X10727Y5702D1*
X10708Y5672D1*
X10688Y5642D1*
X10665Y5612D1*
X10644Y5582D1*
X10627Y5552D1*
X10629Y5523D1*
X10637Y5493D1*
X10647Y5463D1*
X10658Y5433D1*
X10668Y5403D1*
X10680Y5373D1*
X10692Y5343D1*
X10706Y5313D1*
X10717Y5283D1*
X10728Y5253D1*
X10740Y5223D1*
X10755Y5193D1*
X10800Y5163D1*
X10867Y5134D1*
X10941Y5104D1*
X11004Y5074D1*
X11059Y5044D1*
X11108Y5014D1*
X11157Y4984D1*
X11207Y4954D1*
X10280Y6360D2*
X10221Y6330D1*
X10166Y6300D1*
X10120Y6271D1*
X10084Y6241D1*
X10057Y6211D1*
X10037Y6181D1*
X10019Y6151D1*
X10005Y6121D1*
X9993Y6091D1*
X9986Y6061D1*
X9983Y6031D1*
X9981Y6001D1*
Y5971D1*
Y5941D1*
X9982Y5911D1*
X9986Y5882D1*
X9994Y5852D1*
X10006Y5822D1*
X10024Y5792D1*
X10046Y5762D1*
X10073Y5732D1*
X10101Y5702D1*
X10129Y5672D1*
X10154Y5642D1*
X10171Y5612D1*
X10183Y5582D1*
X10182Y5552D1*
X10175Y5523D1*
X10165Y5493D1*
X10152Y5463D1*
X10141Y5433D1*
X10131Y5403D1*
X10119Y5373D1*
X10106Y5343D1*
X10093Y5313D1*
X10081Y5283D1*
X10071Y5253D1*
X10059Y5223D1*
X10046Y5193D1*
X10033Y5163D1*
X10021Y5134D1*
X10011Y5104D1*
X9999Y5074D1*
X9986Y5044D1*
X9969Y5014D1*
X9950Y4984D1*
X10369Y6360D2*
X10447Y6330D1*
X10512Y6300D1*
X10562Y6271D1*
X10602Y6241D1*
X10635Y6211D1*
X10663Y6181D1*
X10685Y6151D1*
X10702Y6121D1*
X10715Y6091D1*
X10722Y6061D1*
X10726Y6031D1*
X10727Y6001D1*
X10728Y5971D1*
X10727Y5941D1*
X10723Y5911D1*
X10715Y5882D1*
X10704Y5852D1*
X10690Y5822D1*
X10675Y5792D1*
X10656Y5762D1*
X10632Y5732D1*
X10601Y5702D1*
X10567Y5672D1*
X10536Y5642D1*
X10512Y5612D1*
X10510Y5582D1*
X10514Y5552D1*
X10521Y5523D1*
X10531Y5493D1*
X10543Y5463D1*
X10557Y5433D1*
X10572Y5403D1*
X10585Y5373D1*
X10597Y5343D1*
X10608Y5313D1*
X10619Y5283D1*
X10629Y5253D1*
X10639Y5223D1*
X10650Y5193D1*
X10663Y5163D1*
X10677Y5134D1*
X10691Y5104D1*
X10706Y5074D1*
X10722Y5044D1*
X10739Y5014D1*
X10758Y4984D1*
X9771Y5134D2*
X9722Y5104D1*
X9675Y5074D1*
X9627Y5044D1*
X9573Y5014D1*
X9510Y4984D1*
X9442Y4954D1*
X9831Y5134D2*
X9861Y5104D1*
X9801Y5014D2*
X9746Y4984D1*
X9694Y4954D1*
X9646Y4924D1*
X9599Y4894D1*
X9551Y4864D1*
X9502Y4834D1*
X9831Y5014D2*
X9861Y4984D1*
X10848Y5014D2*
X10818Y4984D1*
X10938Y5014D2*
X10973Y4984D1*
X11011Y4954D1*
X11054Y4924D1*
X11101Y4894D1*
X11153Y4864D1*
X11207Y4834D1*
X6850Y7445D2*
X6821Y7416D1*
X6795Y7386D1*
X6773Y7356D1*
X6755Y7326D1*
X6739Y7296D1*
X6724Y7266D1*
X6712Y7236D1*
X6701Y7206D1*
X6690Y7176D1*
X6680Y7146D1*
X6670Y7116D1*
X6660Y7086D1*
X6651Y7056D1*
X6645Y7027D1*
X6641Y6997D1*
X6635Y6967D1*
X6624Y6937D1*
X6597Y6907D1*
X6559Y6877D1*
X6512Y6847D1*
X6463Y6817D1*
X6418Y6787D1*
X6378Y6757D1*
X6339Y6727D1*
X6301Y6697D1*
X6267Y6668D1*
X6239Y6638D1*
X6215Y6608D1*
X6193Y6578D1*
X6173Y6548D1*
X6157Y6518D1*
X6145Y6488D1*
X6138Y6458D1*
X6134Y6428D1*
Y6398D1*
X6138Y6368D1*
X6147Y6338D1*
X6170Y6308D1*
X6200Y6279D1*
X6236Y6249D1*
X6277Y6219D1*
X6319Y6189D1*
X6359Y6159D1*
X6395Y6129D1*
X6428Y6099D1*
X6459Y6069D1*
X6485Y6039D1*
X6507Y6009D1*
X6526Y5979D1*
X6542Y5949D1*
X6556Y5919D1*
X6568Y5890D1*
X6575Y5860D1*
X6578Y5830D1*
X6580Y5800D1*
X6581Y5770D1*
X6586Y5740D1*
X6598Y5710D1*
X6613Y5680D1*
X6627Y5650D1*
X6639Y5620D1*
X6654Y5590D1*
X6671Y5560D1*
X6686Y5531D1*
X6699Y5501D1*
X6714Y5471D1*
X6732Y5441D1*
X6750Y5411D1*
X6765Y5381D1*
X6777Y5351D1*
X6784Y5321D1*
X6787Y5291D1*
X6786Y5261D1*
X6782Y5231D1*
X6760Y5201D1*
X6732Y5171D1*
X6703Y5142D1*
X6677Y5112D1*
X6657Y5082D1*
X6651Y5052D1*
X6661Y5022D1*
X6679Y4992D1*
X6700Y4962D1*
X6880Y7445D2*
X6895Y7416D1*
X6907Y7386D1*
X6920Y7356D1*
X6934Y7326D1*
X6951Y7296D1*
X6969Y7266D1*
X7059Y7386D2*
X7034Y7356D1*
X7012Y7326D1*
X6991Y7296D1*
X6969Y7266D1*
X7119Y7386D2*
X7133Y7356D1*
X7141Y7326D1*
X7146Y7296D1*
X7148Y7266D1*
X7149Y7236D1*
Y7206D1*
Y7176D1*
X7148Y7146D1*
X7144Y7116D1*
X7137Y7086D1*
X7129Y7056D1*
X7123Y7027D1*
X7116Y6997D1*
X7108Y6967D1*
X7098Y6937D1*
X7089Y6907D1*
X7079Y6877D1*
X7070Y6847D1*
X7063Y6817D1*
X7056Y6787D1*
X7048Y6757D1*
X7040Y6727D1*
X7034Y6697D1*
X7033Y6668D1*
X7036Y6638D1*
X7045Y6608D1*
X7068Y6578D1*
X7098Y6548D1*
X7136Y6518D1*
X7194Y6488D1*
X7300Y6458D1*
X7473Y6428D1*
X7688Y6398D1*
X6850Y7386D2*
X6825Y7356D1*
X6803Y7326D1*
X6785Y7296D1*
X6768Y7266D1*
X6753Y7236D1*
X6738Y7206D1*
X6724Y7176D1*
X6713Y7146D1*
X6705Y7116D1*
X6698Y7086D1*
X6689Y7056D1*
X6681Y7027D1*
X6674Y6997D1*
X6667Y6967D1*
X6659Y6937D1*
X6648Y6907D1*
X6636Y6877D1*
X6606Y6847D1*
X6565Y6817D1*
X6515Y6787D1*
X6465Y6757D1*
X6418Y6727D1*
X6379Y6697D1*
X6344Y6668D1*
X6312Y6638D1*
X6282Y6608D1*
X6251Y6578D1*
X6221Y6548D1*
X6191Y6518D1*
X6222Y6488D1*
X6235Y6458D1*
X6227Y6428D1*
X6197Y6398D1*
X6162Y6368D1*
X6196Y6338D1*
X6235Y6308D1*
X6277Y6279D1*
X6323Y6249D1*
X6371Y6219D1*
X6415Y6189D1*
X6452Y6159D1*
X6483Y6129D1*
X6506Y6099D1*
X6525Y6069D1*
X6542Y6039D1*
X6558Y6009D1*
X6573Y5979D1*
X6587Y5949D1*
X6598Y5919D1*
X6605Y5890D1*
X6608Y5860D1*
X6611Y5830D1*
X6615Y5800D1*
X6624Y5770D1*
X6635Y5740D1*
X6649Y5710D1*
X6663Y5680D1*
X6678Y5650D1*
X6693Y5620D1*
X6708Y5590D1*
X6723Y5560D1*
X6738Y5531D1*
X6754Y5501D1*
X6771Y5471D1*
X6790Y5441D1*
X6805Y5411D1*
X6817Y5381D1*
X6829Y5351D1*
X6838Y5321D1*
X6843Y5291D1*
X6842Y5261D1*
X6835Y5231D1*
X6822Y5201D1*
X6801Y5171D1*
X6772Y5142D1*
X6737Y5112D1*
X6704Y5082D1*
X6670Y5052D1*
X6756Y5022D1*
X6850Y4992D1*
Y7386D2*
X6874Y7356D1*
X6891Y7326D1*
X6901Y7296D1*
X6905Y7266D1*
X6903Y7236D1*
X6897Y7206D1*
X6890Y7176D1*
X6884Y7146D1*
X6882Y7116D1*
X6881Y7086D1*
X6880Y7056D1*
X6879Y7027D1*
X6875Y6997D1*
X6866Y6967D1*
X6855Y6937D1*
X6842Y6907D1*
X6830Y6877D1*
X6820Y6847D1*
X7089Y7356D2*
X7064Y7326D1*
X7041Y7296D1*
X7020Y7266D1*
X7000Y7236D1*
X6981Y7206D1*
X6965Y7176D1*
X6953Y7146D1*
X6944Y7116D1*
X6937Y7086D1*
X6928Y7056D1*
X6920Y7027D1*
X6913Y6997D1*
X6907Y6967D1*
X6897Y6937D1*
X6884Y6907D1*
X6868Y6877D1*
X6850Y6847D1*
X7119Y7356D2*
Y7326D1*
Y7296D1*
Y7266D1*
Y7236D1*
Y7206D1*
X7118Y7176D1*
X7114Y7146D1*
X7107Y7116D1*
X7099Y7086D1*
X7093Y7056D1*
X7086Y7027D1*
X7078Y6997D1*
X7069Y6967D1*
X7063Y6937D1*
X7056Y6907D1*
X7048Y6877D1*
X7039Y6847D1*
X7029Y6817D1*
X7018Y6787D1*
X7005Y6757D1*
X6992Y6727D1*
X6982Y6697D1*
X6976Y6668D1*
X6975Y6638D1*
X6987Y6608D1*
X7003Y6578D1*
X7022Y6548D1*
X7046Y6518D1*
X7078Y6488D1*
X7119Y6458D1*
X7169Y6428D1*
X7231Y6398D1*
X7299Y6368D1*
X6461Y6638D2*
Y6608D1*
Y6578D1*
Y6548D1*
Y6518D1*
X6551Y6638D2*
X6563Y6608D1*
X6571Y6578D1*
X6562Y6548D1*
X6551Y6518D1*
X7628Y6428D2*
X7598Y6398D1*
X7717Y6428D2*
X7791Y6398D1*
X7859Y6368D1*
X7923Y6338D1*
X7980Y6308D1*
X8033Y6279D1*
X8081Y6249D1*
X8127Y6219D1*
X8167Y6189D1*
X8201Y6159D1*
X8230Y6129D1*
X8258Y6099D1*
X8286Y6069D1*
X8311Y6039D1*
X8333Y6009D1*
X8351Y5979D1*
X8368Y5949D1*
X8387Y5919D1*
X8406Y5890D1*
X8425Y5860D1*
X8442Y5830D1*
X8457Y5800D1*
X8472Y5770D1*
X8483Y5740D1*
X8491Y5710D1*
X8498Y5680D1*
X8507Y5650D1*
X8515Y5620D1*
X8520Y5590D1*
X8523Y5560D1*
X8525Y5531D1*
X8528Y5501D1*
X8533Y5471D1*
X8560Y5441D1*
X8595Y5411D1*
X8632Y5381D1*
X8663Y5351D1*
X8687Y5321D1*
X8696Y5291D1*
X8701Y5261D1*
X8702Y5231D1*
X8698Y5201D1*
X8686Y5171D1*
X8666Y5142D1*
X8640Y5112D1*
X8608Y5082D1*
X8566Y5052D1*
X8517Y5022D1*
X8462Y4992D1*
X8406Y4962D1*
X7717Y6368D2*
X7777Y6338D1*
X7837Y6308D1*
X7897Y6279D1*
X7957Y6249D1*
X8015Y6219D1*
X8070Y6189D1*
X8118Y6159D1*
X8158Y6129D1*
X8193Y6099D1*
X8224Y6069D1*
X8251Y6039D1*
X8274Y6009D1*
X8295Y5979D1*
X8316Y5949D1*
X8336Y5919D1*
X8355Y5890D1*
X8375Y5860D1*
X8391Y5830D1*
X8404Y5800D1*
X8420Y5770D1*
X8436Y5740D1*
X8450Y5710D1*
X8458Y5680D1*
X8464Y5650D1*
X8469Y5620D1*
X8477Y5590D1*
X8485Y5560D1*
X8490Y5531D1*
X8493Y5501D1*
X8495Y5471D1*
Y5441D1*
Y5411D1*
Y5381D1*
Y5351D1*
Y5321D1*
Y5291D1*
X7089Y5351D2*
X7078Y5321D1*
X7065Y5291D1*
X7051Y5261D1*
X7035Y5231D1*
X7018Y5201D1*
X6998Y5171D1*
X6979Y5142D1*
X6957Y5112D1*
X6924Y5082D1*
X6871Y5052D1*
X6793Y5022D1*
X6700Y4992D1*
X7149Y5351D2*
X7210Y5321D1*
X7292Y5291D1*
X7400Y5261D1*
X7509Y5231D1*
X7592Y5201D1*
X7652Y5171D1*
X7672Y5142D1*
X7688Y5112D1*
X7541Y5082D1*
X7438Y5052D1*
X7358Y5022D1*
X7448Y4992D1*
X8585Y5351D2*
X8555Y5321D1*
X8525Y5291D1*
X8645Y5351D2*
X8646Y5321D1*
X8651Y5291D1*
X8661Y5261D1*
X8675Y5231D1*
X8651Y5201D1*
X8622Y5171D1*
X8589Y5142D1*
X8552Y5112D1*
X8508Y5082D1*
X8458Y5052D1*
X8403Y5022D1*
X8346Y4992D1*
X7089Y5291D2*
X7084Y5261D1*
X7076Y5231D1*
X7064Y5201D1*
X7051Y5171D1*
X7036Y5142D1*
X7021Y5112D1*
X7004Y5082D1*
X6981Y5052D1*
X6945Y5022D1*
X6900Y4992D1*
X6850Y4962D1*
X7119Y5291D2*
X7187Y5261D1*
X7280Y5231D1*
X7411Y5201D1*
X7568Y5171D1*
X7468Y5142D1*
X7387Y5112D1*
X7352Y5082D1*
X7337Y5052D1*
X7335Y5022D1*
X7345Y4992D1*
X7358Y4962D1*
X7508Y4992D2*
X11353Y7717D2*
D45*
Y7487D1*
X11367Y7444D1*
X11381Y7429D1*
X11410Y7415D1*
X11453D1*
X11482Y7429D1*
X11353Y7674D2*
X11381Y7702D1*
X11410Y7717D1*
X11453D1*
X11482Y7702D1*
X11511Y7674D1*
X11525Y7630D1*
Y7602D1*
X11511Y7559D1*
X11482Y7530D1*
X11453Y7516D1*
X11410D1*
X11381Y7530D1*
X11353Y7559D1*
X11260Y7831D2*
X11246Y7817D1*
X11231Y7831D1*
X11246Y7846D1*
X11260Y7831D1*
X11246Y7731D2*
Y7530D1*
X11096Y7831D2*
Y7587D1*
X11081Y7545D1*
X11053Y7530D1*
X11024D1*
X11139Y7731D2*
X11038D1*
X10931Y7831D2*
Y7530D1*
Y7674D2*
X10888Y7717D1*
X10859Y7731D1*
X10816D1*
X10788Y7717D1*
X10774Y7674D1*
Y7530D1*
X10681Y7731D2*
Y7587D1*
X10667Y7545D1*
X10638Y7530D1*
X10595D1*
X10566Y7545D1*
X10523Y7587D1*
Y7731D2*
Y7530D1*
X10430Y7831D2*
Y7530D1*
Y7688D2*
X10402Y7717D1*
X10373Y7731D1*
X10330D1*
X10301Y7717D1*
X10273Y7688D1*
X10258Y7645D1*
Y7616D1*
X10273Y7573D1*
X10301Y7545D1*
X10330Y7530D1*
X10373D1*
X10402Y7545D1*
X10430Y7573D1*
X10151Y7559D2*
X10166Y7544D1*
X10151Y7530D1*
X10137Y7544D1*
X10151Y7559D1*
X9872Y7688D2*
X9901Y7717D1*
X9929Y7731D1*
X9972D1*
X10001Y7717D1*
X10030Y7688D1*
X10044Y7645D1*
Y7616D1*
X10030Y7573D1*
X10001Y7545D1*
X9972Y7530D1*
X9929D1*
X9901Y7545D1*
X9872Y7573D1*
X9707Y7731D2*
X9736Y7717D1*
X9765Y7688D1*
X9779Y7645D1*
Y7616D1*
X9765Y7573D1*
X9736Y7545D1*
X9707Y7530D1*
X9664D1*
X9636Y7545D1*
X9607Y7573D1*
X9592Y7616D1*
Y7645D1*
X9607Y7688D1*
X9636Y7717D1*
X9664Y7731D1*
X9707D1*
X9500D2*
Y7530D1*
Y7674D2*
X9457Y7717D1*
X9428Y7731D1*
X9385D1*
X9356Y7717D1*
X9342Y7674D1*
Y7530D1*
Y7674D2*
X9299Y7717D1*
X9270Y7731D1*
X9227D1*
X9198Y7717D1*
X9184Y7674D1*
Y7530D1*
X9091D2*
X8890Y7831D1*
X8798Y7731D2*
Y7530D1*
Y7645D2*
X8783Y7688D1*
X8754Y7717D1*
X8726Y7731D1*
X8682D1*
X8590Y7645D2*
X8418D1*
Y7674D1*
X8432Y7702D1*
X8446Y7717D1*
X8475Y7731D1*
X8518D1*
X8547Y7717D1*
X8576Y7688D1*
X8590Y7645D1*
Y7616D1*
X8576Y7573D1*
X8547Y7545D1*
X8518Y7530D1*
X8475D1*
X8446Y7545D1*
X8418Y7573D1*
X8325Y7731D2*
X8167Y7530D1*
Y7731D2*
X8325Y7530D1*
X8075Y7731D2*
X7917Y7530D1*
Y7731D2*
X8075Y7530D1*
X7652Y7731D2*
Y7530D1*
Y7688D2*
X7681Y7717D1*
X7709Y7731D1*
X7752D1*
X7781Y7717D1*
X7810Y7688D1*
X7824Y7645D1*
Y7616D1*
X7810Y7573D1*
X7781Y7545D1*
X7752Y7530D1*
X7709D1*
X7681Y7545D1*
X7652Y7573D1*
X7559Y7731D2*
Y7530D1*
Y7645D2*
X7545Y7688D1*
X7516Y7717D1*
X7487Y7731D1*
X7444D1*
X7352Y7681D2*
X7186D1*
X7050Y7831D2*
Y7587D1*
X7036Y7545D1*
X7007Y7530D1*
X6978D1*
X7093Y7731D2*
X6993D1*
X6713Y7688D2*
X6742Y7717D1*
X6771Y7731D1*
X6814D1*
X6843Y7717D1*
X6871Y7688D1*
X6886Y7645D1*
Y7616D1*
X6871Y7573D1*
X6843Y7545D1*
X6814Y7530D1*
X6771D1*
X6742Y7545D1*
X6713Y7573D1*
M02*
