G04 DipTrace 2.4.0.2*
%INSquishyDuino.gbl*%
%MOIN*%
%ADD13C,0.013*%
%ADD14C,0.0061*%
%ADD15R,0.0394X0.0433*%
%ADD16R,0.0669X0.0669*%
%ADD17C,0.0669*%
%ADD22C,0.04*%
%FSLAX44Y44*%
G04*
G70*
G90*
G75*
G01*
%LNBottom*%
%LPD*%
X8661Y5107D2*
D13*
Y5121D1*
X4628D1*
X4786Y8063D2*
X4834D1*
X4790Y8107D1*
X6223D1*
X6411Y8294D1*
Y8545D1*
X6473Y8607D1*
X4786Y8063D2*
D14*
Y8732D1*
D22*
X8661Y5107D3*
X4628Y5121D3*
D3*
X10941Y8308D3*
Y8808D3*
X9566D3*
Y8308D3*
X11503D3*
Y8808D3*
X11661Y6919D3*
X9065Y8808D3*
Y8308D3*
X4125Y8956D2*
D14*
X4488D1*
X5908D2*
X6216D1*
X6730D2*
X7216D1*
X7730D2*
X8217D1*
X8730D2*
X11871D1*
X4125Y8896D2*
X4488D1*
X5908D2*
X6149D1*
X6797D2*
X7149D1*
X7797D2*
X8149D1*
X8797D2*
X11871D1*
X4125Y8835D2*
X4488D1*
X5908D2*
X6104D1*
X6843D2*
X7104D1*
X7843D2*
X8104D1*
X8843D2*
X11871D1*
X4125Y8775D2*
X4488D1*
X5908D2*
X6072D1*
X6874D2*
X7072D1*
X7874D2*
X8072D1*
X8873D2*
X11871D1*
X4125Y8715D2*
X4488D1*
X5908D2*
X6051D1*
X6895D2*
X7051D1*
X7895D2*
X8051D1*
X8895D2*
X11871D1*
X4125Y8655D2*
X4488D1*
X5908D2*
X6041D1*
X6905D2*
X7041D1*
X7905D2*
X8041D1*
X8905D2*
X11871D1*
X4125Y8595D2*
X4488D1*
X5908D2*
X6038D1*
X6908D2*
X7038D1*
X7908D2*
X8038D1*
X8908D2*
X11871D1*
X4125Y8535D2*
X4488D1*
X5908D2*
X6044D1*
X6902D2*
X7044D1*
X7902D2*
X8044D1*
X8902D2*
X11871D1*
X4125Y8475D2*
X4488D1*
X5908D2*
X6059D1*
X6887D2*
X7059D1*
X7887D2*
X8059D1*
X8888D2*
X11871D1*
X4125Y8415D2*
X4531D1*
X5908D2*
X6083D1*
X6863D2*
X7083D1*
X7863D2*
X8083D1*
X8863D2*
X11871D1*
X4125Y8355D2*
X4488D1*
X5908D2*
X6120D1*
X6827D2*
X7119D1*
X7827D2*
X8120D1*
X8826D2*
X11871D1*
X4125Y8295D2*
X4488D1*
X5908D2*
X6173D1*
X6773D2*
X7173D1*
X7774D2*
X8173D1*
X8774D2*
X11871D1*
X4125Y8234D2*
X4488D1*
X6692D2*
X7254D1*
X7692D2*
X8254D1*
X8692D2*
X11871D1*
X4125Y8174D2*
X4488D1*
X6509D2*
X11871D1*
X4125Y8114D2*
X4488D1*
X6448D2*
X11871D1*
X4125Y8054D2*
X4488D1*
X6388D2*
X11871D1*
X4125Y7994D2*
X4488D1*
X6329D2*
X11871D1*
X4125Y7934D2*
X4488D1*
X6268D2*
X11871D1*
X4125Y7874D2*
X4488D1*
X5083D2*
X11871D1*
X4125Y7814D2*
X4488D1*
X5083D2*
X11871D1*
X4125Y7754D2*
X4488D1*
X5083D2*
X11871D1*
X4125Y7694D2*
X11871D1*
X4125Y7633D2*
X11871D1*
X4125Y7573D2*
X11871D1*
X4125Y7513D2*
X11871D1*
X4125Y7453D2*
X11871D1*
X4125Y7393D2*
X11871D1*
X4125Y7333D2*
X11871D1*
X4125Y7273D2*
X11871D1*
X4125Y7213D2*
X11871D1*
X4125Y7153D2*
X11871D1*
X4125Y7092D2*
X11871D1*
X4125Y7032D2*
X11871D1*
X4125Y6972D2*
X11871D1*
X4125Y6912D2*
X11871D1*
X4125Y6852D2*
X11871D1*
X4125Y6792D2*
X11871D1*
X4125Y6732D2*
X11871D1*
X4125Y6672D2*
X11871D1*
X4125Y6612D2*
X11871D1*
X4125Y6552D2*
X11871D1*
X4125Y6491D2*
X11871D1*
X4125Y6431D2*
X11871D1*
X4125Y6371D2*
X11871D1*
X4125Y6311D2*
X11871D1*
X4125Y6251D2*
X11871D1*
X4125Y6191D2*
X11871D1*
X4125Y6131D2*
X11871D1*
X4125Y6071D2*
X11871D1*
X4125Y6011D2*
X10289D1*
X11159D2*
X11451D1*
X11748D2*
X11871D1*
X4125Y5950D2*
X10289D1*
X11159D2*
X11339D1*
X4125Y5890D2*
X10289D1*
X11159D2*
X11274D1*
X4125Y5830D2*
X10289D1*
X11159D2*
X11230D1*
X4125Y5770D2*
X10289D1*
X11159D2*
X11200D1*
X4125Y5710D2*
X10289D1*
X11159D2*
X11179D1*
X4125Y5650D2*
X10289D1*
X4125Y5590D2*
X10289D1*
X4125Y5530D2*
X10289D1*
X4125Y5470D2*
X10289D1*
X11159D2*
X11190D1*
X4125Y5410D2*
X4565D1*
X4690D2*
X10289D1*
X11159D2*
X11217D1*
X4125Y5349D2*
X4436D1*
X4819D2*
X8488D1*
X8834D2*
X10289D1*
X11159D2*
X11256D1*
X4125Y5289D2*
X4381D1*
X4876D2*
X8424D1*
X8898D2*
X10289D1*
X11159D2*
X11313D1*
X4125Y5229D2*
X4348D1*
X8935D2*
X10289D1*
X11159D2*
X11402D1*
X11797D2*
X11871D1*
X4125Y5169D2*
X4332D1*
X8955D2*
X11871D1*
X4125Y5109D2*
X4328D1*
X8962D2*
X11871D1*
X4125Y5049D2*
X4336D1*
X8956D2*
X11871D1*
X4125Y4989D2*
X4359D1*
X8937D2*
X10518D1*
X10931D2*
X11400D1*
X11798D2*
X11871D1*
X4125Y4929D2*
X4399D1*
X4857D2*
X8420D1*
X8901D2*
X10431D1*
X11017D2*
X11312D1*
X4125Y4869D2*
X4163D1*
X5033D2*
X5406D1*
X5789D2*
X6406D1*
X6789D2*
X7406D1*
X7789D2*
X8406D1*
X8840D2*
X9406D1*
X9790D2*
X10376D1*
X11073D2*
X11256D1*
X4125Y4808D2*
X4163D1*
X5033D2*
X5313D1*
X5882D2*
X6314D1*
X6882D2*
X7314D1*
X7882D2*
X8314D1*
X8882D2*
X9314D1*
X9882D2*
X10338D1*
X11110D2*
X11217D1*
X4125Y4748D2*
X4163D1*
X5033D2*
X5256D1*
X5940D2*
X6256D1*
X6940D2*
X7256D1*
X7940D2*
X8256D1*
X8941D2*
X9256D1*
X9941D2*
X10312D1*
X11136D2*
X11191D1*
X4125Y4688D2*
X4163D1*
X5033D2*
X5216D1*
X5980D2*
X6215D1*
X6980D2*
X7215D1*
X7980D2*
X8215D1*
X8980D2*
X9215D1*
X9980D2*
X10297D1*
X11153D2*
X11175D1*
X4125Y4628D2*
X4163D1*
X5033D2*
X5189D1*
X6007D2*
X6189D1*
X7007D2*
X7189D1*
X8008D2*
X8188D1*
X9008D2*
X9188D1*
X10008D2*
X10289D1*
X4125Y4568D2*
X4163D1*
X5033D2*
X5171D1*
X6024D2*
X6171D1*
X7024D2*
X7171D1*
X8024D2*
X8171D1*
X9024D2*
X9171D1*
X10024D2*
X10291D1*
X4125Y4508D2*
X4163D1*
X5033D2*
X5164D1*
X6032D2*
X6164D1*
X7032D2*
X7164D1*
X8033D2*
X8164D1*
X9033D2*
X9163D1*
X10033D2*
X10302D1*
X11148D2*
X11180D1*
X4125Y4448D2*
X4163D1*
X5033D2*
X5164D1*
X6032D2*
X6164D1*
X7032D2*
X7164D1*
X8032D2*
X8165D1*
X9032D2*
X9164D1*
X10032D2*
X10321D1*
X11128D2*
X11200D1*
X4125Y4388D2*
X4163D1*
X5033D2*
X5173D1*
X6022D2*
X6173D1*
X7023D2*
X7173D1*
X8023D2*
X8173D1*
X9023D2*
X9173D1*
X10023D2*
X10351D1*
X11098D2*
X11230D1*
X4125Y4328D2*
X4163D1*
X5033D2*
X5192D1*
X6005D2*
X6191D1*
X7005D2*
X7191D1*
X8005D2*
X8191D1*
X9005D2*
X9191D1*
X10005D2*
X10395D1*
X11054D2*
X11275D1*
X4125Y4268D2*
X4163D1*
X5033D2*
X5220D1*
X5976D2*
X6220D1*
X6976D2*
X7220D1*
X7976D2*
X8220D1*
X8976D2*
X9220D1*
X9976D2*
X10459D1*
X10990D2*
X11340D1*
X4125Y4207D2*
X4163D1*
X5033D2*
X5262D1*
X5934D2*
X6262D1*
X6934D2*
X7261D1*
X7934D2*
X8261D1*
X8934D2*
X9261D1*
X9934D2*
X10568D1*
X10880D2*
X11453D1*
X11745D2*
X11871D1*
X4125Y4147D2*
X4163D1*
X5033D2*
X5323D1*
X5873D2*
X6323D1*
X6874D2*
X7323D1*
X7874D2*
X8323D1*
X8873D2*
X9323D1*
X9873D2*
X11871D1*
X4175Y4911D2*
X4421D1*
X4392Y4945D1*
X4375Y4970D1*
X4360Y4997D1*
X4349Y5026D1*
X4341Y5055D1*
X4335Y5086D1*
X4333Y5116D1*
X4335Y5147D1*
X4339Y5177D1*
X4346Y5207D1*
X4357Y5236D1*
X4370Y5264D1*
X4387Y5290D1*
X4406Y5314D1*
X4427Y5336D1*
X4450Y5356D1*
X4476Y5373D1*
X4503Y5387D1*
X4531Y5399D1*
X4561Y5407D1*
X4591Y5413D1*
X4622Y5415D1*
X4652Y5414D1*
X4683Y5410D1*
X4713Y5403D1*
X4741Y5392D1*
X4769Y5379D1*
X4795Y5363D1*
X4820Y5344D1*
X4842Y5323D1*
X4875Y5280D1*
X8423D1*
X8438Y5300D1*
X8460Y5322D1*
X8483Y5342D1*
X8509Y5359D1*
X8536Y5374D1*
X8564Y5385D1*
X8594Y5394D1*
X8624Y5399D1*
X8655Y5401D1*
X8685Y5400D1*
X8716Y5396D1*
X8745Y5389D1*
X8774Y5379D1*
X8802Y5365D1*
X8828Y5349D1*
X8852Y5331D1*
X8875Y5309D1*
X8895Y5286D1*
X8912Y5261D1*
X8927Y5234D1*
X8938Y5205D1*
X8947Y5176D1*
X8953Y5146D1*
X8955Y5107D1*
X8954Y5076D1*
X8949Y5046D1*
X8941Y5016D1*
X8930Y4988D1*
X8916Y4960D1*
X8900Y4934D1*
X8880Y4910D1*
X8859Y4889D1*
X8812Y4854D1*
X8854Y4826D1*
X8892Y4795D1*
X8926Y4759D1*
X8955Y4720D1*
X8980Y4677D1*
X9000Y4633D1*
X9014Y4586D1*
X9024Y4537D1*
X9027Y4488D1*
X9025Y4439D1*
X9017Y4390D1*
X9004Y4343D1*
X8986Y4297D1*
X8962Y4254D1*
X8934Y4214D1*
X8901Y4178D1*
X8864Y4145D1*
X8827Y4119D1*
X9369D1*
X9315Y4159D1*
X9272Y4202D1*
X9236Y4251D1*
X9207Y4305D1*
X9185Y4363D1*
X9173Y4423D1*
X9169Y4484D1*
X9174Y4545D1*
X9187Y4605D1*
X9209Y4663D1*
X9239Y4716D1*
X9276Y4765D1*
X9320Y4808D1*
X9369Y4845D1*
X9423Y4874D1*
X9481Y4895D1*
X9541Y4907D1*
X9602Y4911D1*
X9663Y4906D1*
X9723Y4892D1*
X9780Y4870D1*
X9834Y4840D1*
X9883Y4803D1*
X9926Y4759D1*
X9962Y4709D1*
X9990Y4655D1*
X10011Y4598D1*
X10024Y4537D1*
X10027Y4482D1*
X10023Y4420D1*
X10010Y4360D1*
X9988Y4303D1*
X9959Y4249D1*
X9922Y4200D1*
X9879Y4157D1*
X9827Y4119D1*
X11877D1*
X11875Y4285D1*
X11826Y4249D1*
X11772Y4220D1*
X11714Y4199D1*
X11654Y4187D1*
X11593Y4184D1*
X11531Y4189D1*
X11472Y4203D1*
X11415Y4226D1*
X11361Y4256D1*
X11313Y4294D1*
X11271Y4339D1*
X11235Y4389D1*
X11207Y4443D1*
X11188Y4502D1*
X11176Y4562D1*
X11174Y4623D1*
X11180Y4684D1*
X11195Y4744D1*
X11219Y4800D1*
X11250Y4853D1*
X11289Y4901D1*
X11334Y4942D1*
X11385Y4977D1*
X11440Y5004D1*
X11498Y5023D1*
X11559Y5033D1*
X11620Y5035D1*
X11681Y5027D1*
X11740Y5011D1*
X11796Y4987D1*
X11849Y4955D1*
X11876Y4933D1*
X11877Y5286D1*
X11826Y5249D1*
X11772Y5220D1*
X11714Y5199D1*
X11654Y5187D1*
X11593Y5184D1*
X11531Y5189D1*
X11472Y5203D1*
X11415Y5226D1*
X11361Y5256D1*
X11313Y5294D1*
X11271Y5339D1*
X11235Y5389D1*
X11207Y5443D1*
X11188Y5502D1*
X11176Y5562D1*
X11174Y5623D1*
X11180Y5684D1*
X11195Y5744D1*
X11219Y5800D1*
X11250Y5853D1*
X11289Y5901D1*
X11334Y5942D1*
X11385Y5977D1*
X11440Y6004D1*
X11498Y6023D1*
X11559Y6033D1*
X11620Y6035D1*
X11681Y6027D1*
X11740Y6011D1*
X11796Y5987D1*
X11849Y5955D1*
X11876Y5933D1*
X11877Y8940D1*
Y9016D1*
X8603D1*
X8655Y8996D1*
X8709Y8966D1*
X8758Y8928D1*
X8801Y8884D1*
X8837Y8835D1*
X8866Y8781D1*
X8886Y8723D1*
X8899Y8663D1*
X8902Y8607D1*
X8898Y8546D1*
X8885Y8486D1*
X8863Y8428D1*
X8834Y8375D1*
X8797Y8325D1*
X8754Y8282D1*
X8704Y8245D1*
X8650Y8216D1*
X8593Y8195D1*
X8533Y8182D1*
X8472Y8178D1*
X8411Y8182D1*
X8351Y8196D1*
X8293Y8217D1*
X8239Y8247D1*
X8190Y8284D1*
X8147Y8328D1*
X8111Y8377D1*
X8082Y8431D1*
X8061Y8488D1*
X8048Y8549D1*
X8044Y8610D1*
X8049Y8671D1*
X8062Y8731D1*
X8084Y8788D1*
X8114Y8842D1*
X8151Y8891D1*
X8195Y8934D1*
X8244Y8970D1*
X8298Y8999D1*
X8342Y9016D1*
X7604D1*
X7655Y8996D1*
X7709Y8966D1*
X7758Y8928D1*
X7801Y8884D1*
X7837Y8835D1*
X7866Y8781D1*
X7886Y8723D1*
X7899Y8663D1*
X7902Y8607D1*
X7898Y8546D1*
X7885Y8486D1*
X7863Y8428D1*
X7834Y8375D1*
X7797Y8325D1*
X7754Y8282D1*
X7704Y8245D1*
X7650Y8216D1*
X7593Y8195D1*
X7533Y8182D1*
X7472Y8178D1*
X7411Y8182D1*
X7351Y8196D1*
X7293Y8217D1*
X7239Y8247D1*
X7190Y8284D1*
X7147Y8328D1*
X7111Y8377D1*
X7082Y8431D1*
X7061Y8488D1*
X7048Y8549D1*
X7044Y8610D1*
X7049Y8671D1*
X7062Y8731D1*
X7084Y8788D1*
X7114Y8842D1*
X7151Y8891D1*
X7195Y8934D1*
X7244Y8970D1*
X7298Y8999D1*
X7342Y9016D1*
X6604D1*
X6655Y8996D1*
X6709Y8966D1*
X6758Y8928D1*
X6801Y8884D1*
X6837Y8835D1*
X6866Y8781D1*
X6886Y8723D1*
X6899Y8663D1*
X6902Y8607D1*
X6898Y8546D1*
X6885Y8486D1*
X6863Y8428D1*
X6834Y8375D1*
X6797Y8325D1*
X6754Y8282D1*
X6704Y8245D1*
X6650Y8216D1*
X6593Y8195D1*
X6533Y8182D1*
X6507Y8179D1*
X6267Y7938D1*
X6240Y7923D1*
X6223Y7920D1*
X5077D1*
Y7751D1*
X4494D1*
Y8374D1*
X4538D1*
X4537Y8421D1*
X4494D1*
Y9016D1*
X4119Y9015D1*
Y4119D1*
X4169Y4120D1*
Y4911D1*
X4175D1*
X10326Y6039D2*
X11154D1*
Y5180D1*
X10295D1*
Y6039D1*
X10326D1*
X11154Y4603D2*
X11150Y4554D1*
X11141Y4506D1*
X11126Y4459D1*
X11107Y4414D1*
X11082Y4372D1*
X11052Y4333D1*
X11019Y4297D1*
X10981Y4265D1*
X10940Y4238D1*
X10896Y4216D1*
X10850Y4199D1*
X10802Y4187D1*
X10754Y4181D1*
X10705D1*
X10656Y4186D1*
X10608Y4196D1*
X10561Y4212D1*
X10517Y4234D1*
X10476Y4260D1*
X10437Y4290D1*
X10403Y4325D1*
X10372Y4364D1*
X10347Y4406D1*
X10326Y4450D1*
X10310Y4497D1*
X10300Y4545D1*
X10295Y4594D1*
X10296Y4643D1*
X10303Y4692D1*
X10315Y4739D1*
X10333Y4785D1*
X10355Y4829D1*
X10383Y4869D1*
X10415Y4907D1*
X10451Y4940D1*
X10490Y4969D1*
X10533Y4994D1*
X10578Y5013D1*
X10625Y5027D1*
X10673Y5036D1*
X10722Y5039D1*
X10771Y5036D1*
X10820Y5028D1*
X10867Y5014D1*
X10912Y4995D1*
X10955Y4971D1*
X10995Y4943D1*
X11031Y4910D1*
X11064Y4873D1*
X11091Y4832D1*
X11114Y4789D1*
X11132Y4743D1*
X11145Y4696D1*
X11152Y4647D1*
X11154Y4603D1*
X5902Y9016D2*
Y8293D1*
X6180D1*
X6147Y8328D1*
X6111Y8377D1*
X6082Y8431D1*
X6061Y8488D1*
X6048Y8549D1*
X6044Y8610D1*
X6049Y8671D1*
X6062Y8731D1*
X6084Y8788D1*
X6114Y8842D1*
X6151Y8891D1*
X6195Y8934D1*
X6244Y8970D1*
X6298Y8999D1*
X6342Y9016D1*
X5903D1*
X4876Y4962D2*
X4847Y4924D1*
X4835Y4911D1*
X5027D1*
Y4118D1*
X5369Y4119D1*
X5315Y4159D1*
X5272Y4202D1*
X5236Y4251D1*
X5207Y4305D1*
X5185Y4363D1*
X5173Y4423D1*
X5169Y4484D1*
X5174Y4545D1*
X5187Y4605D1*
X5209Y4663D1*
X5239Y4716D1*
X5276Y4765D1*
X5320Y4808D1*
X5369Y4845D1*
X5423Y4874D1*
X5481Y4895D1*
X5541Y4907D1*
X5602Y4911D1*
X5663Y4906D1*
X5723Y4892D1*
X5780Y4870D1*
X5834Y4840D1*
X5883Y4803D1*
X5926Y4759D1*
X5962Y4709D1*
X5990Y4655D1*
X6011Y4598D1*
X6024Y4537D1*
X6027Y4482D1*
X6023Y4420D1*
X6010Y4360D1*
X5988Y4303D1*
X5959Y4249D1*
X5922Y4200D1*
X5879Y4157D1*
X5827Y4119D1*
X6369D1*
X6325Y4151D1*
X6289Y4184D1*
X6257Y4221D1*
X6229Y4262D1*
X6207Y4305D1*
X6189Y4351D1*
X6177Y4399D1*
X6170Y4448D1*
X6169Y4497D1*
X6174Y4545D1*
X6184Y4594D1*
X6199Y4640D1*
X6220Y4685D1*
X6245Y4727D1*
X6276Y4765D1*
X6310Y4800D1*
X6349Y4831D1*
X6390Y4857D1*
X6434Y4878D1*
X6481Y4895D1*
X6529Y4905D1*
X6578Y4910D1*
X6627D1*
X6675Y4904D1*
X6723Y4892D1*
X6769Y4875D1*
X6813Y4853D1*
X6854Y4826D1*
X6892Y4795D1*
X6926Y4759D1*
X6955Y4720D1*
X6980Y4677D1*
X7000Y4633D1*
X7014Y4586D1*
X7024Y4537D1*
X7027Y4488D1*
X7025Y4439D1*
X7017Y4390D1*
X7004Y4343D1*
X6986Y4297D1*
X6962Y4254D1*
X6934Y4214D1*
X6901Y4178D1*
X6864Y4145D1*
X6827Y4119D1*
X7369D1*
X7315Y4159D1*
X7272Y4202D1*
X7236Y4251D1*
X7207Y4305D1*
X7185Y4363D1*
X7173Y4423D1*
X7169Y4484D1*
X7174Y4545D1*
X7187Y4605D1*
X7209Y4663D1*
X7239Y4716D1*
X7276Y4765D1*
X7320Y4808D1*
X7369Y4845D1*
X7423Y4874D1*
X7481Y4895D1*
X7541Y4907D1*
X7602Y4911D1*
X7663Y4906D1*
X7723Y4892D1*
X7780Y4870D1*
X7834Y4840D1*
X7883Y4803D1*
X7926Y4759D1*
X7962Y4709D1*
X7990Y4655D1*
X8011Y4598D1*
X8024Y4537D1*
X8027Y4482D1*
X8023Y4420D1*
X8010Y4360D1*
X7988Y4303D1*
X7959Y4249D1*
X7922Y4200D1*
X7879Y4157D1*
X7827Y4119D1*
X8369D1*
X8325Y4151D1*
X8289Y4184D1*
X8257Y4221D1*
X8229Y4262D1*
X8207Y4305D1*
X8189Y4351D1*
X8177Y4399D1*
X8170Y4448D1*
X8169Y4497D1*
X8174Y4545D1*
X8184Y4594D1*
X8199Y4640D1*
X8220Y4685D1*
X8245Y4727D1*
X8276Y4765D1*
X8310Y4800D1*
X8349Y4831D1*
X8390Y4857D1*
X8434Y4878D1*
X8463Y4889D1*
X8424Y4931D1*
X8405Y4961D1*
X4875D1*
X4847Y4924D1*
X4835Y4911D1*
X4421D2*
X4392Y4945D1*
X4375Y4970D1*
X4360Y4997D1*
X4349Y5026D1*
X4341Y5055D1*
X4335Y5086D1*
X4333Y5116D1*
X4335Y5147D1*
X4339Y5177D1*
X4346Y5207D1*
X4357Y5236D1*
X4370Y5264D1*
X4387Y5290D1*
X4406Y5314D1*
X4427Y5336D1*
X4450Y5356D1*
X4476Y5373D1*
X4503Y5387D1*
X4531Y5399D1*
X4561Y5407D1*
X4591Y5413D1*
X4622Y5415D1*
X4652Y5414D1*
X4683Y5410D1*
X4713Y5403D1*
X4741Y5392D1*
X4769Y5379D1*
X4795Y5363D1*
X4820Y5344D1*
X4842Y5323D1*
X4875Y5280D1*
X4169Y4482D2*
D13*
X5027D1*
X6598Y4911D2*
Y4482D1*
X6169D2*
X7027D1*
X8169D2*
X9027D1*
X10724Y5039D2*
Y4180D1*
X10295Y4609D2*
X11154D1*
X4494Y8732D2*
X4786D1*
D16*
X4598Y4482D3*
D17*
X5598D3*
X6598D3*
X7598D3*
X8598D3*
X9598D3*
D16*
X10724Y5609D3*
D17*
Y4609D3*
D16*
X5473Y8607D3*
D17*
X6473D3*
X7473D3*
X8473D3*
D15*
X4786Y8732D3*
Y8063D3*
M02*
