M48
INCH
T01C0.0191
T02C0.0433
T03C0.0591
%
T01
X+004348Y+005250
X+004348Y+004812
X+004348Y+004375
X+005723Y+004375
X+005723Y+004812
X+005723Y+005250
X+006911Y+005375
X+009786Y+005375
X+011537Y+005375
X+007536Y+008688
T02
X+006411Y+004500
X+007411Y+004500
X+008411Y+004500
X+009411Y+004500
X+010411Y+004500
X+011411Y+004500
X+011286Y+008500
X+010286Y+008500
X+009286Y+008500
X+008286Y+008500
X+005286Y+008500
X+005286Y+007500
T03
X+004536Y+007500
X+004536Y+008500
T00
M30
