M48
INCH
T01C0.0191
T02C0.0394
T03C0.0433
%
T01
X+010941Y+008308
X+010941Y+008808
X+011503Y+008808
X+011503Y+008308
X+011661Y+006919
X+009566Y+008308
X+009065Y+008308
X+009065Y+008808
X+009566Y+008808
X+008661Y+005107
X+004628Y+005121
T02
X+011599Y+004609
X+011599Y+005609
T03
X+004598Y+004482
X+005598Y+004482
X+006598Y+004482
X+007598Y+004482
X+008598Y+004482
X+009598Y+004482
X+010724Y+004609
X+010724Y+005609
X+008473Y+008607
X+007473Y+008607
X+006473Y+008607
X+005473Y+008607
T00
M30
